<svg width="27" height="27" viewBox="0 0 27 27" fill="none" xmlns="http://www.w3.org/2000/svg">
<path d="M10.551 11.1063C11.0614 11.1063 11.5669 11.0058 12.0385 10.8104C12.5101 10.6151 12.9387 10.3287 13.2996 9.96778C13.6606 9.60682 13.9469 9.1783 14.1423 8.70668C14.3376 8.23507 14.4382 7.72959 14.4382 7.21911C14.4382 6.70864 14.3376 6.20316 14.1423 5.73155C13.9469 5.25993 13.6606 4.83141 13.2996 4.47045C12.9387 4.10949 12.5101 3.82316 12.0385 3.6278C11.5669 3.43245 11.0614 3.33191 10.551 3.33191C9.52001 3.33191 8.53129 3.74145 7.80229 4.47045C7.0733 5.19944 6.66376 6.18816 6.66376 7.21911C6.66376 8.25007 7.0733 9.23879 7.80229 9.96778C8.53129 10.6968 9.52001 11.1063 10.551 11.1063Z" fill="white" stroke="white" stroke-width="2" stroke-linecap="round" stroke-linejoin="round"/>
<path d="M18.1077 3.88721C18.6824 4.2329 19.1579 4.72141 19.488 5.30526C19.8181 5.8891 19.9915 6.54841 19.9913 7.2191C19.9915 7.88978 19.8181 8.5491 19.488 9.13294C19.1579 9.71679 18.6824 10.2053 18.1077 10.551" stroke="white" stroke-width="2" stroke-linecap="round" stroke-linejoin="round"/>
<path d="M2.22125 22.6569V23.3232H18.8807V22.6569C18.8807 20.169 18.8807 18.9251 18.3965 17.9744C17.9706 17.1386 17.291 16.459 16.4551 16.0331C15.5044 15.5488 14.2605 15.5488 11.7727 15.5488H9.32929C6.84147 15.5488 5.59757 15.5488 4.64687 16.0331C3.81099 16.459 3.1314 17.1386 2.70549 17.9744C2.22125 18.9251 2.22125 20.169 2.22125 22.6569Z" fill="white" stroke="white" stroke-width="2" stroke-linecap="round" stroke-linejoin="round"/>
<path d="M24.4339 23.3233V22.6569C24.4339 20.1691 24.4339 18.9252 23.9496 17.9745C23.5237 17.1386 22.8441 16.459 22.0082 16.0331" stroke="white" stroke-width="2" stroke-linecap="round" stroke-linejoin="round"/>
</svg>
