<svg width="58" height="56" viewBox="0 0 58 56" fill="none" xmlns="http://www.w3.org/2000/svg">
<ellipse cx="29" cy="28" rx="29" ry="28" fill="#E6B436" fill-opacity="0.4"/>
<path d="M29.4113 26.1904C28.4704 25.9617 27.5295 25.5043 26.8238 24.8182C26.1181 24.5896 25.8829 23.9035 25.8829 23.4461C25.8829 22.9887 26.1181 22.3026 26.5886 22.0739C27.2943 21.6165 27.9999 21.1592 28.7056 21.3879C30.117 21.3879 31.2931 22.0739 31.9988 22.9887L34.1159 20.2444C33.4102 19.5583 32.7045 19.1009 31.9988 18.6435C31.2931 18.1861 30.3522 17.9575 29.4113 17.9575V14.7557H26.5886V17.9575C25.4124 18.1861 24.2363 18.8722 23.2954 19.787C22.3545 20.9305 21.6488 22.3026 21.884 23.6748C21.884 25.0469 22.3545 26.4191 23.2954 27.3339C24.4715 28.4773 26.1181 29.1634 27.5295 29.8495C28.2352 30.0782 29.1761 30.5356 29.8818 30.993C30.3522 31.4504 30.5874 32.1364 30.5874 32.8225C30.5874 33.5086 30.3522 34.1947 29.8818 34.8807C29.1761 35.5668 28.2352 35.7955 27.5295 35.7955C26.5886 35.7955 25.4124 35.5668 24.7068 34.8807C24.0011 34.4234 23.2954 33.7373 22.8249 33.0512L20.4727 35.5668C21.1784 36.4816 21.884 37.1677 22.8249 37.8538C24.0011 38.5398 25.4124 39.2259 26.8238 39.2259V42.1989H29.4113V38.7685C30.8227 38.5398 31.9988 37.8538 32.9397 36.939C34.1159 35.7955 34.8215 33.966 34.8215 32.3651C34.8215 30.993 34.3511 29.3921 33.1749 28.4773C31.9988 27.3339 30.8227 26.6478 29.4113 26.1904ZM27.9999 10.1819C17.6499 10.1819 9.18176 18.4148 9.18176 28.4773C9.18176 38.5398 17.6499 46.7728 27.9999 46.7728C38.3499 46.7728 46.8181 38.5398 46.8181 28.4773C46.8181 18.4148 38.3499 10.1819 27.9999 10.1819ZM27.9999 44.2572C19.0613 44.2572 11.7693 37.1677 11.7693 28.4773C11.7693 19.787 19.0613 12.6975 27.9999 12.6975C36.9386 12.6975 44.2306 19.787 44.2306 28.4773C44.2306 37.1677 36.9386 44.2572 27.9999 44.2572Z" fill="#FCC02A"/>
</svg>
