<svg width="31" height="21" viewBox="0 0 31 21" fill="none" xmlns="http://www.w3.org/2000/svg">
<path d="M22.475 15.75C25.141 15.75 28.2875 16.95 28.675 17.67V18.75H16.275V17.67C16.6625 16.95 19.809 15.75 22.475 15.75ZM22.475 13.5C19.6385 13.5 13.95 14.88 13.95 17.625V21H31V17.625C31 14.88 25.3115 13.5 22.475 13.5ZM10.85 12C7.2385 12 0 13.755 0 17.25V21H10.85V18.75H2.325V17.25C2.325 16.305 6.6495 14.01 12.121 14.25C12.7867 13.4783 13.6031 12.8412 14.5235 12.375C13.3144 12.1352 12.0842 12.0096 10.85 12ZM10.85 2.25C11.3098 2.25 11.7594 2.38196 12.1417 2.62919C12.524 2.87643 12.822 3.22783 12.998 3.63896C13.174 4.0501 13.22 4.5025 13.1303 4.93895C13.0406 5.37541 12.8192 5.77632 12.494 6.09099C12.1689 6.40566 11.7546 6.61995 11.3036 6.70677C10.8526 6.79358 10.3851 6.74903 9.96026 6.57873C9.53542 6.40843 9.17231 6.12004 8.91683 5.75003C8.66136 5.38002 8.525 4.94501 8.525 4.5C8.525 3.90326 8.76995 3.33097 9.20598 2.90901C9.642 2.48705 10.2334 2.25 10.85 2.25ZM10.85 0C9.93032 0 9.03129 0.263921 8.2666 0.758387C7.50191 1.25285 6.90591 1.95566 6.55396 2.77792C6.20201 3.60019 6.10993 4.50499 6.28935 5.37791C6.46877 6.25082 6.91164 7.05264 7.56195 7.68198C8.21227 8.31132 9.04082 8.7399 9.94283 8.91353C10.8448 9.08717 11.7798 8.99805 12.6295 8.65746C13.4792 8.31686 14.2054 7.74009 14.7163 7.00007C15.2273 6.26005 15.5 5.39002 15.5 4.5C15.5 3.30653 15.0101 2.16193 14.138 1.31802C13.266 0.474106 12.0833 0 10.85 0ZM22.475 5.25C22.7816 5.25 23.0812 5.33797 23.3361 5.5028C23.591 5.66762 23.7897 5.90189 23.907 6.17597C24.0243 6.45006 24.055 6.75166 23.9952 7.04264C23.9354 7.33361 23.7878 7.60088 23.571 7.81066C23.3542 8.02044 23.0781 8.1633 22.7774 8.22118C22.4767 8.27906 22.1651 8.24935 21.8818 8.13582C21.5986 8.02229 21.3565 7.83003 21.1862 7.58336C21.0159 7.33668 20.925 7.04667 20.925 6.75C20.925 6.35218 21.0883 5.97064 21.379 5.68934C21.6697 5.40804 22.0639 5.25 22.475 5.25ZM22.475 3C21.7086 3 20.9594 3.21993 20.3222 3.63199C19.6849 4.04404 19.1883 4.62971 18.895 5.31494C18.6017 6.00016 18.5249 6.75416 18.6745 7.48159C18.824 8.20902 19.193 8.8772 19.735 9.40165C20.2769 9.9261 20.9673 10.2833 21.719 10.4279C22.4707 10.5726 23.2498 10.4984 23.9579 10.2145C24.666 9.93072 25.2712 9.45007 25.6969 8.83339C26.1227 8.2167 26.35 7.49168 26.35 6.75C26.35 5.75544 25.9417 4.80161 25.215 4.09835C24.4883 3.39509 23.5027 3 22.475 3Z" fill="#1980E6"/>
</svg>
