<svg width="16" height="16" viewBox="0 0 16 16" fill="none" xmlns="http://www.w3.org/2000/svg">
<path d="M8.76195 7.506C8.97218 7.29622 9.07729 7.04222 9.07729 6.744C9.07729 6.44533 8.97218 6.19111 8.76195 5.98133C8.55218 5.77156 8.29818 5.66667 7.99995 5.66667C7.70173 5.66667 7.44773 5.77156 7.23795 5.98133C7.02818 6.19111 6.92329 6.44533 6.92329 6.744C6.92329 7.04178 7.02818 7.29578 7.23795 7.506C7.44773 7.71578 7.70173 7.82067 7.99995 7.82067C8.29818 7.82067 8.55218 7.71578 8.76195 7.506ZM7.99995 13.118C9.25329 12.0273 10.244 10.9182 10.972 9.79067C11.7 8.66311 12.064 7.68755 12.064 6.864C12.064 5.64444 11.678 4.63778 10.906 3.844C10.1331 3.05067 9.1644 2.654 7.99995 2.654C6.83551 2.654 5.86684 3.05067 5.09395 3.844C4.32106 4.63733 3.93506 5.644 3.93595 6.864C3.93595 7.68711 4.29995 8.66267 5.02795 9.79067C5.75595 10.9187 6.74662 12.0278 7.99995 13.118ZM7.99995 14.0127C6.43329 12.6273 5.25329 11.3353 4.45995 10.1367C3.66618 8.938 3.26929 7.84711 3.26929 6.864C3.26929 5.45378 3.7284 4.29067 4.64662 3.37467C5.56529 2.45822 6.68307 2 7.99995 2C9.31684 2 10.4346 2.45822 11.3533 3.37467C12.2715 4.29067 12.7306 5.45378 12.7306 6.864C12.7306 7.84711 12.334 8.938 11.5406 10.1367C10.7468 11.3353 9.56662 12.6273 7.99995 14.0127Z" fill="black"/>
</svg>
