<svg width="65" height="65" viewBox="0 0 65 65" fill="none" xmlns="http://www.w3.org/2000/svg">
<path d="M17.6042 32.5C16.5267 32.5 15.4934 32.928 14.7316 33.6899C13.9697 34.4517 13.5417 35.4851 13.5417 36.5625C13.5417 37.6399 13.9697 38.6733 14.7316 39.4351C15.4934 40.197 16.5267 40.625 17.6042 40.625C18.6816 40.625 19.7149 40.197 20.4768 39.4351C21.2387 38.6733 21.6667 37.6399 21.6667 36.5625C21.6667 35.4851 21.2387 34.4517 20.4768 33.6899C19.7149 32.928 18.6816 32.5 17.6042 32.5ZM47.3959 32.5C46.3184 32.5 45.2851 32.928 44.5232 33.6899C43.7614 34.4517 43.3334 35.4851 43.3334 36.5625C43.3334 37.6399 43.7614 38.6733 44.5232 39.4351C45.2851 40.197 46.3184 40.625 47.3959 40.625C48.4733 40.625 49.5066 40.197 50.2685 39.4351C51.0303 38.6733 51.4584 37.6399 51.4584 36.5625C51.4584 35.4851 51.0303 34.4517 50.2685 33.6899C49.5066 32.928 48.4733 32.5 47.3959 32.5Z" fill="#158841"/>
<path d="M56.2521 24.8083L52.5417 13.7042C52.0048 12.0831 50.9692 10.6732 49.5829 9.67603C48.1966 8.67887 46.5306 8.14548 44.8229 8.1521H20.15C18.4433 8.1496 16.7792 8.6846 15.3937 9.68118C14.0082 10.6778 12.9717 12.0853 12.4313 13.7042L8.72084 24.8083C6.77084 25.6208 5.38959 27.5708 5.38959 29.7917V43.3333C5.38959 45.3375 6.5 47.0708 8.09792 47.9917V54.1667C8.09792 55.6563 9.31667 56.875 10.8063 56.875H13.5146C15.0042 56.875 16.2229 55.6563 16.2229 54.1667V48.75H48.7229V54.1667C48.7229 55.6563 49.9417 56.875 51.4313 56.875H54.1396C55.6292 56.875 56.8479 55.6563 56.8479 54.1667V47.9917C57.6666 47.519 58.3473 46.8404 58.8224 46.0232C59.2976 45.206 59.5506 44.2786 59.5563 43.3333V29.7917C59.5563 27.5438 58.175 25.6208 56.225 24.8083H56.2521ZM20.15 13.5417H44.85C45.4178 13.5402 45.9717 13.7172 46.4334 14.0477C46.8951 14.3782 47.2412 14.8454 47.4229 15.3833L50.4292 24.375H14.5979L17.6042 15.3833C17.7859 14.8454 18.132 14.3782 18.5937 14.0477C19.0554 13.7172 19.6093 13.5402 20.1771 13.5417H20.15ZM10.8333 43.3333V29.7917H54.1667V43.3333H10.8333Z" fill="#158841"/>
</svg>
