<svg width="40" height="40" viewBox="0 0 40 40" fill="none" xmlns="http://www.w3.org/2000/svg">
<path d="M16.4583 21.875C15.4861 20.9028 15 19.7222 15 18.3333V8.33334C15 6.94445 15.4861 5.7639 16.4583 4.79168C17.4306 3.81945 18.6111 3.33334 20 3.33334C21.3889 3.33334 22.5694 3.81945 23.5417 4.79168C24.5139 5.7639 25 6.94445 25 8.33334V18.3333C25 19.7222 24.5139 20.9028 23.5417 21.875C22.5694 22.8472 21.3889 23.3333 20 23.3333C18.6111 23.3333 17.4306 22.8472 16.4583 21.875ZM18.3333 35V29.875C15.4444 29.4861 13.0556 28.1945 11.1667 26C9.27777 23.8056 8.33333 21.25 8.33333 18.3333H11.6667C11.6667 20.6389 12.4794 22.6045 14.105 24.23C15.7306 25.8556 17.6956 26.6678 20 26.6667C22.3044 26.6656 24.27 25.8528 25.8967 24.2283C27.5233 22.6039 28.3356 20.6389 28.3333 18.3333H31.6667C31.6667 21.25 30.7222 23.8056 28.8333 26C26.9444 28.1945 24.5556 29.4861 21.6667 29.875V35H18.3333ZM21.1883 19.5217C21.5072 19.2017 21.6667 18.8056 21.6667 18.3333V8.33334C21.6667 7.86112 21.5067 7.46557 21.1867 7.14668C20.8667 6.82779 20.4711 6.66779 20 6.66668C19.5289 6.66557 19.1333 6.82557 18.8133 7.14668C18.4933 7.46779 18.3333 7.86334 18.3333 8.33334V18.3333C18.3333 18.8056 18.4933 19.2017 18.8133 19.5217C19.1333 19.8417 19.5289 20.0011 20 20C20.4711 19.9989 20.8672 19.8389 21.1883 19.52" fill="#808080"/>
</svg>
