<svg width="45" height="45" viewBox="0 0 45 45" fill="none" xmlns="http://www.w3.org/2000/svg">
<path d="M22.2126 31.9769L14.5307 36.6045C14.1914 36.8205 13.8366 36.913 13.4664 36.8822C13.0962 36.8513 12.7723 36.7279 12.4946 36.512C12.2169 36.296 12.001 36.0264 11.8467 35.703C11.6925 35.3797 11.6616 35.0169 11.7542 34.6146L13.7903 25.8684L6.98772 19.9913C6.67921 19.7137 6.4867 19.3971 6.41019 19.0417C6.33368 18.6863 6.35651 18.3396 6.47868 18.0015C6.60085 17.6633 6.78596 17.3857 7.034 17.1685C7.28204 16.9513 7.6214 16.8125 8.05207 16.752L17.0297 15.9653L20.5004 7.72812C20.6546 7.35791 20.894 7.08025 21.2186 6.89515C21.5431 6.71004 21.8745 6.61749 22.2126 6.61749C22.5507 6.61749 22.8821 6.71004 23.2066 6.89515C23.5312 7.08025 23.7706 7.35791 23.9248 7.72812L27.3955 15.9653L36.3731 16.752C36.805 16.8137 37.1444 16.9525 37.3912 17.1685C37.638 17.3844 37.8231 17.6621 37.9465 18.0015C38.0699 18.3408 38.0934 18.6882 38.0169 19.0436C37.9404 19.399 37.7472 19.7149 37.4375 19.9913L30.6349 25.8684L32.671 34.6146C32.7636 35.0157 32.7327 35.3785 32.5785 35.703C32.4242 36.0276 32.2083 36.2972 31.9306 36.512C31.653 36.7267 31.329 36.8501 30.9588 36.8822C30.5886 36.9142 30.2338 36.8217 29.8945 36.6045L22.2126 31.9769Z" fill="white"/>
</svg>
