<svg width="40" height="40" viewBox="0 0 40 40" fill="none" xmlns="http://www.w3.org/2000/svg">
<path d="M18.0416 36.6667C17.2916 36.6667 16.6461 36.4167 16.105 35.9167C15.5639 35.4167 15.2372 34.8056 15.125 34.0833L14.75 31.3333C14.3889 31.1945 14.0489 31.0278 13.73 30.8333C13.4111 30.6389 13.0983 30.4306 12.7916 30.2083L10.2083 31.2917C9.51386 31.5972 8.81941 31.625 8.12497 31.375C7.43052 31.125 6.88886 30.6806 6.49997 30.0417L4.54163 26.625C4.15274 25.9861 4.04163 25.3056 4.2083 24.5833C4.37497 23.8611 4.74997 23.2639 5.3333 22.7917L7.54163 21.125C7.51386 20.9306 7.49997 20.7428 7.49997 20.5617V19.4367C7.49997 19.2567 7.51386 19.0695 7.54163 18.875L5.3333 17.2083C4.74997 16.7361 4.37497 16.1389 4.2083 15.4167C4.04163 14.6945 4.15274 14.0139 4.54163 13.375L6.49997 9.95834C6.88886 9.31945 7.43052 8.87501 8.12497 8.62501C8.81941 8.37501 9.51386 8.40279 10.2083 8.70834L12.7916 9.79168C13.0972 9.56945 13.4166 9.36112 13.75 9.16668C14.0833 8.97223 14.4166 8.80557 14.75 8.66668L15.125 5.91668C15.2361 5.19445 15.5627 4.58334 16.105 4.08334C16.6472 3.58334 17.2927 3.33334 18.0416 3.33334H21.9583C22.7083 3.33334 23.3544 3.58334 23.8966 4.08334C24.4389 4.58334 24.765 5.19445 24.875 5.91668L25.25 8.66668C25.6111 8.80557 25.9516 8.97223 26.2716 9.16668C26.5916 9.36112 26.9039 9.56945 27.2083 9.79168L29.7916 8.70834C30.4861 8.40279 31.1805 8.37501 31.875 8.62501C32.5694 8.87501 33.1111 9.31945 33.5 9.95834L35.4583 13.375C35.8472 14.0139 35.9583 14.6945 35.7916 15.4167C35.625 16.1389 35.25 16.7361 34.6666 17.2083L32.4583 18.875C32.4861 19.0695 32.5 19.2572 32.5 19.4383V20.5617C32.5 20.7428 32.4722 20.9306 32.4166 21.125L34.625 22.7917C35.2083 23.2639 35.5833 23.8611 35.75 24.5833C35.9166 25.3056 35.8055 25.9861 35.4166 26.625L33.4166 30.0417C33.0277 30.6806 32.4861 31.125 31.7916 31.375C31.0972 31.625 30.4027 31.5972 29.7083 31.2917L27.2083 30.2083C26.9027 30.4306 26.5833 30.6389 26.25 30.8333C25.9166 31.0278 25.5833 31.1945 25.25 31.3333L24.875 34.0833C24.7639 34.8056 24.4377 35.4167 23.8966 35.9167C23.3555 36.4167 22.7094 36.6667 21.9583 36.6667H18.0416ZM18.3333 33.3333H21.625L22.2083 28.9167C23.0694 28.6945 23.8683 28.3683 24.605 27.9383C25.3416 27.5083 26.015 26.9872 26.625 26.375L30.75 28.0833L32.375 25.25L28.7916 22.5417C28.9305 22.1528 29.0277 21.7433 29.0833 21.3133C29.1389 20.8833 29.1666 20.4456 29.1666 20C29.1666 19.5545 29.1389 19.1172 29.0833 18.6883C29.0277 18.2595 28.9305 17.8495 28.7916 17.4583L32.375 14.75L30.75 11.9167L26.625 13.6667C26.0139 13.0278 25.3405 12.4933 24.605 12.0633C23.8694 11.6333 23.0705 11.3067 22.2083 11.0833L21.6666 6.66668H18.375L17.7916 11.0833C16.9305 11.3056 16.1322 11.6322 15.3966 12.0633C14.6611 12.4945 13.9872 13.015 13.375 13.625L9.24997 11.9167L7.62497 14.75L11.2083 17.4167C11.0694 17.8333 10.9722 18.25 10.9166 18.6667C10.8611 19.0833 10.8333 19.5278 10.8333 20C10.8333 20.4445 10.8611 20.875 10.9166 21.2917C10.9722 21.7083 11.0694 22.125 11.2083 22.5417L7.62497 25.25L9.24997 28.0833L13.375 26.3333C13.9861 26.9722 14.66 27.5072 15.3966 27.9383C16.1333 28.3695 16.9316 28.6956 17.7916 28.9167L18.3333 33.3333ZM20.0833 25.8333C21.6944 25.8333 23.0694 25.2639 24.2083 24.125C25.3472 22.9861 25.9166 21.6111 25.9166 20C25.9166 18.3889 25.3472 17.0139 24.2083 15.875C23.0694 14.7361 21.6944 14.1667 20.0833 14.1667C18.4444 14.1667 17.0627 14.7361 15.9383 15.875C14.8139 17.0139 14.2511 18.3889 14.25 20C14.2489 21.6111 14.8116 22.9861 15.9383 24.125C17.065 25.2639 18.4466 25.8333 20.0833 25.8333Z" fill="#1980E6"/>
</svg>
