<svg width="40" height="40" viewBox="0 0 40 40" fill="none" xmlns="http://www.w3.org/2000/svg">
<path d="M35 11.465L28.535 5C28.3032 4.76734 28.0277 4.58273 27.7244 4.45677C27.4211 4.3308 27.0959 4.26596 26.7675 4.26596C26.4391 4.26596 26.1139 4.3308 25.8106 4.45677C25.5073 4.58273 25.2318 4.76734 25 5L6.76833 23.2317C6.28 23.72 5.83833 24.4433 5.51833 25.2117C5.19833 25.9833 5 26.81 5 27.5V35H12.5C13.19 35 14.0133 34.8017 14.785 34.4817C15.5567 34.1617 16.2783 33.72 16.7667 33.2317L35 15C35.2327 14.7682 35.4173 14.4927 35.5432 14.1894C35.6692 13.8861 35.734 13.5609 35.734 13.2325C35.734 12.9041 35.6692 12.5789 35.5432 12.2756C35.4173 11.9723 35.2327 11.6968 35 11.465ZM9.61333 25.1017L23.435 11.28L25.4883 13.3333L11.6667 27.155L9.61333 25.1017ZM12.5 31.6667H10L8.33333 30V27.5C8.33333 27.3717 8.38833 26.9917 8.59667 26.4917C8.61333 26.4583 13.5417 31.3883 13.5417 31.3883C13.005 31.6117 12.6283 31.6667 12.5 31.6667ZM14.8983 30.3867L12.845 28.3333L26.6667 14.5117L28.72 16.565L14.8983 30.3867ZM29.8983 15.3867L24.6117 10.1L26.7667 7.945L32.05 13.2317L29.8983 15.3867Z" fill="#6B6661"/>
</svg>
