<svg width="16" height="17" viewBox="0 0 16 17" fill="none" xmlns="http://www.w3.org/2000/svg">
<path d="M0.75 11.3073C1.125 11.3523 1.40278 11.5239 1.58333 11.8223C1.855 12.2698 2.86417 13.9273 4.01083 13.9273H5.75M10.4767 10.9998C10.9339 11.5986 11.1625 12.1364 11.1625 12.6131V15.7506M6.475 11.0764C5.99167 11.6064 5.75028 12.11 5.75083 12.5873V15.7506" stroke="black" stroke-width="1.5" stroke-linecap="round" stroke-linejoin="round"/>
<path d="M10.4766 10.9997C11.4783 10.7914 12.3874 10.4314 13.0933 9.90306C14.2999 8.99973 14.9166 7.60473 14.9166 6.22723C14.9166 5.26056 14.5499 4.35806 13.9133 3.5939C13.5591 3.16806 14.5958 0.367231 13.6749 0.794731C12.7541 1.22306 11.4041 1.79306 10.6966 1.5839C9.93908 1.36056 9.11325 1.23723 8.24992 1.23723C7.49992 1.23723 6.77825 1.32973 6.10492 1.5014C5.12658 1.74973 4.19159 1.1989 3.24992 0.794731C2.30825 0.391398 2.82242 3.3014 2.54242 3.6464C1.93409 4.40056 1.58325 5.2839 1.58325 6.22723C1.58325 7.60473 2.32909 8.99973 3.53575 9.90223C4.33992 10.5039 5.34742 10.8881 6.47492 11.0772" stroke="black" stroke-width="1.5" stroke-linecap="round" stroke-linejoin="round"/>
</svg>
