<svg width="32" height="28" viewBox="0 0 32 28" fill="none" xmlns="http://www.w3.org/2000/svg">
<path d="M29.75 26.25L31.3775 25.6025C31.4938 25.8951 31.529 26.2136 31.4794 26.5246C31.4298 26.8355 31.2972 27.1273 31.0956 27.3692C30.8941 27.611 30.631 27.7941 30.3341 27.8989C30.0372 28.0038 29.7175 28.0266 29.4088 27.965L29.75 26.25ZM21.5145 24.612L20.685 23.0703L21.2398 22.7728L21.8558 22.8953L21.5145 24.612ZM26.908 19.1047L25.2805 19.7522L24.9953 19.0278L25.3383 18.3295L26.908 19.1047ZM3.5 14C3.5 19.6805 8.49275 24.5 14.9275 24.5V28C6.80575 28 0 21.8505 0 14H3.5ZM26.3533 14C26.3533 8.3195 21.3588 3.5 14.9258 3.5V0C23.0475 0 29.855 6.1495 29.855 14H26.3533ZM14.9258 3.5C8.49275 3.5 3.5 8.3195 3.5 14H0C0 6.1495 6.804 0 14.9258 0V3.5ZM14.9275 24.5C17.0363 24.5 18.9998 23.975 20.685 23.0703L22.344 26.152C20.0632 27.3747 17.5154 28.0099 14.9275 28V24.5ZM29.4088 27.965L21.1733 26.327L21.8558 22.8953L30.0913 24.5332L29.4088 27.9668V27.965ZM25.3383 18.3295C26.0045 16.9833 26.3506 15.502 26.3533 14H29.855C29.855 16.1 29.3615 18.0915 28.4795 19.88L25.3383 18.3295ZM28.5338 18.4573L31.3775 25.6043L28.126 26.8957L25.284 19.7505L28.5355 18.4573H28.5338Z" fill="#053361"/>
<path d="M21 15.75C20.0335 15.75 19.25 14.9665 19.25 14C19.25 13.0335 20.0335 12.25 21 12.25C21.9665 12.25 22.75 13.0335 22.75 14C22.75 14.9665 21.9665 15.75 21 15.75Z" fill="#053361"/>
<path d="M14.875 15.75C13.9085 15.75 13.125 14.9665 13.125 14C13.125 13.0335 13.9085 12.25 14.875 12.25C15.8415 12.25 16.625 13.0335 16.625 14C16.625 14.9665 15.8415 15.75 14.875 15.75Z" fill="#053361"/>
<path d="M8.75002 15.75C7.78352 15.75 7.00002 14.9665 7.00002 14C7.00002 13.0335 7.78352 12.25 8.75002 12.25C9.71651 12.25 10.5 13.0335 10.5 14C10.5 14.9665 9.71651 15.75 8.75002 15.75Z" fill="#053361"/>
</svg>
