<svg width="40" height="40" viewBox="0 0 40 40" fill="none" xmlns="http://www.w3.org/2000/svg">
<path d="M21.3968 29.3967C21.7991 28.9933 22.0002 28.5 22.0002 27.9167C22.0002 27.3333 21.7991 26.84 21.3968 26.4367C20.9946 26.0333 20.5013 25.8322 19.9168 25.8333C19.3324 25.8344 18.8396 26.0361 18.4385 26.4383C18.0374 26.8405 17.8357 27.3333 17.8335 27.9167C17.8313 28.5 18.0329 28.9933 18.4385 29.3967C18.8441 29.8 19.3368 30.0011 19.9168 30C20.4968 29.9989 20.9902 29.7972 21.3968 29.395M18.4168 23.5833H21.5002C21.5002 22.6667 21.6046 21.9444 21.8135 21.4167C22.0224 20.8889 22.6124 20.1667 23.5835 19.25C24.3057 18.5278 24.8752 17.84 25.2918 17.1867C25.7085 16.5333 25.9168 15.7489 25.9168 14.8333C25.9168 13.2778 25.3474 12.0833 24.2085 11.25C23.0696 10.4167 21.7224 9.99999 20.1668 9.99999C18.5835 9.99999 17.2991 10.4167 16.3135 11.25C15.3279 12.0833 14.6402 13.0833 14.2502 14.25L17.0002 15.3333C17.1391 14.8333 17.4518 14.2917 17.9385 13.7083C18.4252 13.125 19.1679 12.8333 20.1668 12.8333C21.0557 12.8333 21.7224 13.0767 22.1668 13.5633C22.6113 14.05 22.8335 14.5844 22.8335 15.1667C22.8335 15.7222 22.6668 16.2433 22.3335 16.73C22.0002 17.2167 21.5835 17.6678 21.0835 18.0833C19.8613 19.1667 19.1113 19.9861 18.8335 20.5417C18.5557 21.0972 18.4168 22.1111 18.4168 23.5833ZM20.0002 36.6667C17.6946 36.6667 15.5279 36.2294 13.5002 35.355C11.4724 34.4805 9.7085 33.2928 8.2085 31.7917C6.7085 30.2905 5.52128 28.5267 4.64683 26.5C3.77239 24.4733 3.33461 22.3067 3.3335 20C3.33239 17.6933 3.77017 15.5267 4.64683 13.5C5.5235 11.4733 6.71072 9.70943 8.2085 8.20832C9.70628 6.70721 11.4702 5.51999 13.5002 4.64666C15.5302 3.77332 17.6968 3.33554 20.0002 3.33332C22.3035 3.3311 24.4702 3.76888 26.5002 4.64666C28.5302 5.52443 30.2941 6.71166 31.7918 8.20832C33.2896 9.70499 34.4774 11.4689 35.3552 13.5C36.2329 15.5311 36.6702 17.6978 36.6668 20C36.6635 22.3022 36.2257 24.4689 35.3535 26.5C34.4813 28.5311 33.2941 30.295 31.7918 31.7917C30.2896 33.2883 28.5257 34.4761 26.5002 35.355C24.4746 36.2339 22.3079 36.6711 20.0002 36.6667ZM20.0002 33.3333C23.7224 33.3333 26.8752 32.0417 29.4585 29.4583C32.0418 26.875 33.3335 23.7222 33.3335 20C33.3335 16.2778 32.0418 13.125 29.4585 10.5417C26.8752 7.95832 23.7224 6.66666 20.0002 6.66666C16.2779 6.66666 13.1252 7.95832 10.5418 10.5417C7.9585 13.125 6.66683 16.2778 6.66683 20C6.66683 23.7222 7.9585 26.875 10.5418 29.4583C13.1252 32.0417 16.2779 33.3333 20.0002 33.3333Z" fill="#1980E6"/>
</svg>
