<svg width="61" height="61" viewBox="0 0 61 61" fill="none" xmlns="http://www.w3.org/2000/svg">
<path fill-rule="evenodd" clip-rule="evenodd" d="M30.4557 17.0144L32.6144 14.8558C37.3777 10.0917 45.1011 10.0917 49.8652 14.8558C54.6285 19.6191 54.6285 27.3425 49.8652 32.1058L48.1976 33.7734L48.196 33.7749L48.1808 33.791L48.1633 33.8085L33.3936 48.5781C32.8332 49.1385 32.1244 49.5272 31.3506 49.6984C30.5768 49.8696 29.7701 49.8162 29.0256 49.5444C28.2811 49.2727 27.6298 48.794 27.1481 48.1646C26.6665 47.5352 26.3746 46.7813 26.307 45.9917C25.3298 45.9095 24.4135 45.4831 23.7213 44.7885C23.0269 44.0965 22.6005 43.1805 22.5181 42.2036C21.5408 42.1212 20.6245 41.6945 19.9325 40.9996C19.2384 40.307 18.8121 39.391 18.7292 38.414C17.7518 38.3319 16.8352 37.9055 16.1428 37.2108C15.5765 36.646 15.1859 35.9294 15.0181 35.1474C14.3325 35.0706 13.6934 34.7624 13.2064 34.2736L11.0448 32.1127C6.28065 27.3478 6.28065 19.6229 11.0448 14.8588C15.8089 10.0947 23.5345 10.094 28.2986 14.8588L29.8267 16.3869C29.8511 16.4093 29.8752 16.4326 29.8991 16.457L30.4557 17.0144ZM34.7715 17.0121C38.3438 13.4398 44.1357 13.4398 47.708 17.0121C51.2811 20.5852 51.2811 26.3772 47.708 29.9495L46.0344 31.6239L46.0183 31.6392L46.0161 31.6422L46.0069 31.6514L31.2373 46.421C31.1341 46.5241 31.0117 46.6059 30.8769 46.6618C30.7422 46.7176 30.5978 46.7463 30.4519 46.7463C30.306 46.7463 30.1616 46.7176 30.0269 46.6618C29.8921 46.6059 29.7697 46.5241 29.6665 46.421C29.5634 46.3179 29.4816 46.1954 29.4258 46.0607C29.3699 45.9259 29.3412 45.7815 29.3412 45.6356C29.3412 45.4898 29.3699 45.3453 29.4258 45.2106C29.4816 45.0758 29.5634 44.9534 29.6665 44.8503L36.6663 37.8505C36.9522 37.5645 37.1128 37.1767 37.1128 36.7723C37.1128 36.368 36.9522 35.9801 36.6663 35.6942L36.6045 35.6332C36.3185 35.3473 35.9307 35.1867 35.5263 35.1867C35.122 35.1867 34.7341 35.3473 34.4482 35.6332L27.4484 42.6321C27.2401 42.8404 26.9576 42.9575 26.663 42.9575C26.3685 42.9575 26.086 42.8404 25.8777 42.6321C25.6694 42.4238 25.5524 42.1413 25.5524 41.8468C25.5524 41.5522 25.6694 41.2697 25.8777 41.0614L32.8774 34.0616C33.1633 33.7757 33.3239 33.3878 33.3239 32.9835C33.3239 32.5791 33.1633 32.1913 32.8774 31.9053L32.8157 31.8443C32.674 31.7026 32.5059 31.5902 32.3208 31.5136C32.1358 31.4369 31.9374 31.3974 31.7371 31.3974C31.5368 31.3974 31.3384 31.4369 31.1534 31.5136C30.9683 31.5902 30.8002 31.7026 30.6585 31.8443L23.6588 38.8433C23.5557 38.9464 23.4332 39.0281 23.2985 39.0839C23.1638 39.1397 23.0194 39.1684 22.8735 39.1683C22.579 39.1682 22.2966 39.0512 22.0884 38.8429C21.8802 38.6346 21.7633 38.3521 21.7634 38.0576C21.7635 37.7631 21.8805 37.4807 22.0888 37.2725L29.0886 30.2728C29.3744 29.9868 29.5351 29.599 29.5351 29.1946C29.5351 28.7902 29.3744 28.4024 29.0886 28.1164L29.026 28.0547C28.7401 27.7688 28.3522 27.6082 27.9479 27.6082C27.5435 27.6082 27.1557 27.7688 26.8697 28.0547L19.8699 35.0544C19.6701 35.2581 19.3994 35.377 19.1142 35.3865C18.829 35.3959 18.5511 35.2951 18.3382 35.1051C18.1253 34.9151 17.9938 34.6503 17.9709 34.3659C17.948 34.0814 18.0355 33.7991 18.2153 33.5775L26.734 25.0596L30.2582 28.5838C30.6917 29.0186 31.2163 29.3516 31.7941 29.5591C32.3719 29.7665 32.9885 29.843 33.5995 29.7833C34.3849 29.7078 35.1326 29.4105 35.7554 28.9262C36.3782 28.4418 36.8505 27.7904 37.1171 27.0478C37.3837 26.3052 37.4336 25.5021 37.261 24.7322C37.0884 23.9623 36.7005 23.2574 36.1424 22.6996L32.6121 19.1708L34.7715 17.0121ZM33.2907 26.7493C33.502 26.7322 33.7039 26.655 33.8727 26.5268C34.0415 26.3985 34.1701 26.2247 34.2432 26.0257C34.3164 25.8268 34.331 25.611 34.2855 25.404C34.2399 25.197 34.136 25.0074 33.9861 24.8575L27.742 18.6134L27.6848 18.5577L26.1423 17.0152C22.5684 13.4421 16.7749 13.4421 13.2019 17.0152C9.62803 20.5883 9.62803 26.3825 13.2019 29.9556L15.3628 32.1165L24.5768 22.9025C25.0869 22.3906 25.7628 22.0775 26.4831 22.0195C26.9244 21.9831 27.3683 22.0432 27.784 22.1957C28.1997 22.3482 28.5772 22.5894 28.8903 22.9025L32.4153 26.4275C32.6548 26.6669 32.9773 26.7744 33.2907 26.7493Z" fill="white" stroke="white" stroke-width="0.25" stroke-linecap="round" stroke-linejoin="round"/>
</svg>
