<svg width="65" height="65" viewBox="0 0 65 65" fill="none" xmlns="http://www.w3.org/2000/svg">
<path d="M56.2141 14.476C55.9598 14.1826 55.6453 13.9473 55.292 13.7861C54.9388 13.6249 54.555 13.5415 54.1666 13.5417H16.7402L16.2121 10.3892C16.1069 9.75677 15.7809 9.18217 15.2919 8.76758C14.8029 8.35299 14.1827 8.1253 13.5416 8.125H7.4479C6.7296 8.125 6.04073 8.41034 5.53282 8.91825C5.0249 9.42616 4.73956 10.115 4.73956 10.8333C4.73956 11.5516 5.0249 12.2405 5.53282 12.7484C6.04073 13.2563 6.7296 13.5417 7.4479 13.5417H11.2477L16.2852 43.7775L16.4071 44.1133L16.5533 44.5223L16.8783 45.0071L17.1356 45.3104L17.6583 45.6625L17.9616 45.8385C18.2772 45.9683 18.6144 46.0372 18.9556 46.0417H48.75C49.4683 46.0417 50.1572 45.7563 50.6651 45.2484C51.173 44.7405 51.4583 44.0516 51.4583 43.3333C51.4583 42.615 51.173 41.9262 50.6651 41.4183C50.1572 40.9103 49.4683 40.625 48.75 40.625H21.2523L20.8027 37.9167H51.4583C52.11 37.9168 52.7399 37.6818 53.2324 37.255C53.7249 36.8282 54.047 36.238 54.1396 35.5929L56.8479 16.6346C56.9031 16.2504 56.8751 15.8588 56.7657 15.4864C56.6564 15.114 56.4683 14.7694 56.2141 14.476ZM51.0439 18.9583L50.2721 24.375H40.625V18.9583H51.0439ZM37.9166 18.9583V24.375H29.7916V18.9583H37.9166ZM37.9166 27.0833V32.5H29.7916V27.0833H37.9166ZM27.0833 18.9583V24.375H18.9583L18.5575 24.4562L17.6421 18.9583H27.0833ZM18.9962 27.0833H27.0833V32.5H19.8981L18.9962 27.0833ZM40.625 32.5V27.0833H49.8821L49.1102 32.5H40.625Z" fill="#632678"/>
<path d="M23.0208 56.875C25.2645 56.875 27.0833 55.0562 27.0833 52.8125C27.0833 50.5688 25.2645 48.75 23.0208 48.75C20.7772 48.75 18.9583 50.5688 18.9583 52.8125C18.9583 55.0562 20.7772 56.875 23.0208 56.875Z" fill="#632678"/>
<path d="M47.3958 56.875C49.6395 56.875 51.4583 55.0562 51.4583 52.8125C51.4583 50.5688 49.6395 48.75 47.3958 48.75C45.1522 48.75 43.3333 50.5688 43.3333 52.8125C43.3333 55.0562 45.1522 56.875 47.3958 56.875Z" fill="#632678"/>
</svg>
