<svg width="25" height="25" viewBox="0 0 25 25" fill="none" xmlns="http://www.w3.org/2000/svg">
<path d="M4.52148 1.02539C2.95898 1.02539 1.39453 2.19727 1.39453 4.54102L4.52148 10.791L7.64648 4.54102C7.64648 2.19727 6.08398 1.02539 4.52148 1.02539ZM18.3057 2.92969C17.9688 2.94385 17.6416 3.00781 17.3682 3.06641L17.5537 3.92578C17.8271 3.86475 18.1104 3.82617 18.3496 3.80859L18.3057 2.92969ZM4.52148 2.97852C5.38574 2.97852 6.08398 3.67822 6.08398 4.54102C6.08398 5.40527 5.38574 6.10352 4.52148 6.10352C3.65869 6.10352 2.95898 5.40527 2.95898 4.54102C2.95898 3.67822 3.65869 2.97852 4.52148 2.97852ZM19.2773 2.98828L19.1309 3.85254C19.3701 3.90283 19.6094 3.96582 19.8193 4.0918L20.2441 3.32031C19.9463 3.16162 19.6143 3.01904 19.2773 2.98828ZM16.4697 3.31543C16.1719 3.43164 15.874 3.53564 15.6201 3.6377L15.9668 4.44336C16.2354 4.3291 16.5186 4.22949 16.7578 4.14551L16.4697 3.31543ZM21.0449 3.96973L20.376 4.54102C20.5518 4.74219 20.6885 4.99023 20.7959 5.19043L21.582 4.79492C21.416 4.4751 21.2695 4.23291 21.0449 3.96973ZM14.8047 4.01367C14.5068 4.16553 14.2627 4.30078 13.999 4.43359L14.4287 5.20508C14.6826 5.05859 14.9609 4.91699 15.1855 4.80469L14.8047 4.01367ZM13.2275 4.88769C12.9688 5.03906 12.7148 5.19043 12.4658 5.35644L12.9443 6.08887C13.1836 5.93262 13.4326 5.78613 13.6768 5.63965L13.2275 4.88769ZM21.8848 5.76172C21.5967 5.81055 21.3037 5.84473 21.0156 5.87891C21.0352 6.12305 21.0205 6.38672 20.9717 6.5918L21.8262 6.79199C21.875 6.44043 21.9189 6.0791 21.8848 5.76172ZM11.7236 5.84473C11.4795 6.01074 11.2402 6.18164 10.9961 6.34766L11.5039 7.06543C11.7383 6.89453 11.9775 6.7334 12.2168 6.56738L11.7236 5.84473ZM10.2783 6.875C10.0342 7.05078 9.78027 7.24609 9.57031 7.40723L10.1025 8.10547C10.3711 7.91016 10.5566 7.76367 10.8008 7.58301L10.2783 6.875ZM20.6787 7.26562C20.5322 7.49023 20.3613 7.71484 20.1904 7.88574L20.8301 8.49609C21.04 8.24707 21.2646 7.99316 21.4209 7.73926L20.6787 7.26562ZM8.87207 7.9541C8.63281 8.13965 8.39356 8.33008 8.18359 8.50586L8.74023 9.18457C8.96973 8.99414 9.2041 8.79883 9.41895 8.64258L8.87207 7.9541ZM19.585 8.44727C19.3604 8.62793 19.126 8.80371 18.9111 8.95019L19.4141 9.67285C19.6729 9.49707 19.9268 9.30664 20.1465 9.13086L19.585 8.44727ZM7.50488 9.07715C7.27539 9.26269 7.05566 9.45801 6.83105 9.64844L7.40234 10.3174C7.62207 10.127 7.8418 9.93652 8.06641 9.75098L7.50488 9.07715ZM18.1934 9.41894C17.9443 9.56543 17.6855 9.7168 17.4512 9.84375L17.8711 10.6201C18.1348 10.459 18.4326 10.3174 18.6523 10.1709L18.1934 9.41894ZM6.16211 10.2295C5.94238 10.4248 5.72754 10.6201 5.50781 10.8203L6.09863 11.4746C6.31348 11.2793 6.5332 11.084 6.74805 10.8887L6.16211 10.2295ZM16.6846 10.249C16.4258 10.376 16.167 10.5078 15.9082 10.6348L16.2842 11.4258C16.5869 11.2793 16.8115 11.1572 17.085 11.0303L16.6846 10.249ZM15.1221 11.001C14.8535 11.123 14.5947 11.2402 14.3213 11.3525L14.6777 12.1582C14.9463 12.041 15.2148 11.9189 15.4834 11.7969L15.1221 11.001ZM4.86328 11.4258C4.61426 11.6455 4.44092 11.8164 4.21387 12.0361L4.83398 12.6709C5.06348 12.4512 5.24902 12.2607 5.46387 12.0752L4.86328 11.4258ZM13.5205 11.709C13.252 11.8213 12.9834 11.9385 12.7148 12.0508L13.0566 12.8662C13.3301 12.7539 13.5986 12.6367 13.8672 12.5195L13.5205 11.709ZM11.9043 12.3926C11.6357 12.5098 11.3672 12.627 11.0938 12.7344L11.4355 13.5498C11.7041 13.4375 11.9775 13.3203 12.2461 13.208L11.9043 12.3926ZM20.9277 12.7441C19.3652 12.7441 17.8027 13.916 17.8027 16.2598L20.9277 22.5098L24.0527 16.2598C24.0527 13.916 22.4902 12.7441 20.9277 12.7441ZM10.2832 13.0762C10.0049 13.2031 9.71191 13.3203 9.47266 13.4229L9.81934 14.2334C10.1074 14.1113 10.3809 13.9941 10.625 13.8867L10.2832 13.0762ZM8.66211 13.7695C8.39844 13.8916 8.09082 14.0283 7.85645 14.1357L8.21777 14.9365C8.50586 14.8096 8.75977 14.6826 9.01367 14.5752L8.66211 13.7695ZM7.05078 14.502C6.77734 14.6338 6.49414 14.7705 6.25 14.8926L6.64551 15.6787C6.90918 15.542 7.18262 15.415 7.42188 15.2978L7.05078 14.502ZM20.9277 14.6973C21.792 14.6973 22.4902 15.3955 22.4902 16.2598C22.4902 17.124 21.792 17.8223 20.9277 17.8223C20.0635 17.8223 19.3652 17.124 19.3652 16.2598C19.3652 15.3955 20.0635 14.6973 20.9277 14.6973ZM5.45898 15.2978C5.2002 15.4395 4.94141 15.5859 4.67773 15.7373L5.11719 16.499C5.36621 16.3525 5.62012 16.2158 5.87402 16.0791L5.45898 15.2978ZM3.91113 16.2109C3.63721 16.3672 3.37256 16.5771 3.14453 16.7285L3.67676 17.4316C3.91943 17.2559 4.18066 17.0752 4.38965 16.9482L3.91113 16.2109ZM2.45117 17.3145C2.2168 17.5293 1.98584 17.7783 1.80664 17.9883L2.47559 18.5596C2.66357 18.3301 2.82715 18.1592 3.04688 17.9639L2.45117 17.3145ZM13.0859 17.3779L13.1641 18.252C13.418 18.208 13.6719 18.2373 13.9258 18.2764L14.0771 17.4121C13.7549 17.3633 13.4131 17.3291 13.0859 17.3779ZM11.2695 17.8662L11.6016 18.6816C11.8555 18.5693 12.1191 18.4814 12.3877 18.3984C12.2949 18.1201 12.2266 17.8369 12.1533 17.5537C11.8457 17.6416 11.5381 17.7588 11.2695 17.8662ZM15.0537 17.8223L14.5557 18.5449C14.7607 18.6963 14.9609 18.8574 15.1221 19.0576L15.7861 18.4814C15.5371 18.2275 15.3467 17.9883 15.0537 17.8223ZM10.4395 18.2617C10.1709 18.3984 9.91211 18.5547 9.65332 18.7061L10.0977 19.4629C10.3516 19.3262 10.6006 19.165 10.8496 19.0332L10.4395 18.2617ZM1.27002 18.7988C1.12256 19.1162 1.00293 19.458 0.947266 19.7607L1.81152 19.9121C1.86426 19.6338 1.93994 19.4336 2.05078 19.1943C1.78271 19.0771 1.52686 18.9355 1.27002 18.7988ZM8.8916 19.1797C8.64258 19.3408 8.39844 19.502 8.1543 19.668L8.64258 20.4004C8.88672 20.2393 9.12598 20.0732 9.37012 19.9121L8.8916 19.1797ZM16.3477 19.2383L15.6104 19.7168C15.7666 19.9512 15.918 20.1953 16.0596 20.4443L16.8213 20.0049C16.6504 19.7314 16.5283 19.4873 16.3477 19.2383ZM7.42676 20.166C7.18262 20.3271 6.93848 20.4834 6.69922 20.6543L7.1875 21.3867C7.42188 21.2158 7.6709 21.0547 7.91992 20.8887L7.42676 20.166ZM1.82129 20.6299C1.53857 20.6885 1.25342 20.7373 0.969238 20.791C1.02051 21.1328 1.15771 21.4648 1.28174 21.7285L2.0752 21.3477C1.96924 21.1035 1.86865 20.8496 1.82129 20.6299ZM17.2559 20.7666L16.4941 21.2061C16.6455 21.4697 16.8213 21.7529 16.9629 21.9775L17.7002 21.5039C17.5342 21.2451 17.3926 21.001 17.2559 20.7666ZM5.97656 21.1328C5.73242 21.2842 5.49316 21.4307 5.23926 21.5723L5.67383 22.3389C5.93262 22.1875 6.19141 22.0361 6.44043 21.875L5.97656 21.1328ZM2.49512 21.9287L1.89453 22.5732C2.16602 22.832 2.50098 23.0029 2.86621 23.0811L3.06152 22.2266C2.84473 22.1826 2.64209 22.0752 2.49512 21.9287ZM4.49707 21.9434C4.25244 22.0557 3.99854 22.1436 3.73535 22.1973L3.93555 23.0566C4.24902 22.9932 4.54395 22.876 4.83887 22.7539L4.49707 21.9434ZM18.1836 22.1777L17.5049 22.7295C17.7148 22.9883 17.9736 23.2373 18.1982 23.4131L18.7402 22.7197C18.5254 22.5537 18.3398 22.3535 18.1836 22.1777ZM19.3604 23.0322L19.1406 23.8867C19.5264 23.9648 19.8145 23.9893 20.1758 23.9502L20.0684 23.0762C19.8291 23.1152 19.5947 23.0908 19.3604 23.0322Z" fill="#6B6661"/>
</svg>
