<svg width="40" height="40" viewBox="0 0 40 40" fill="none" xmlns="http://www.w3.org/2000/svg">
<path d="M18.2532 33.7011C18.8109 34.0914 19.5008 34.2442 20.1712 34.1259C20.8415 34.0075 21.4374 33.6277 21.8277 33.07C21.9628 32.8769 22.0156 32.6379 21.9746 32.4058C21.9335 32.1737 21.802 31.9674 21.6088 31.8322L19.5532 29.6667L24.2444 32.95C24.4235 33.0759 24.6258 33.1652 24.8396 33.2128C25.0534 33.2603 25.2744 33.2652 25.4901 33.2271C25.7057 33.189 25.9117 33.1087 26.0963 32.9908C26.2808 32.8729 26.4403 32.7197 26.5655 32.54C26.691 32.3607 26.7799 32.1584 26.8272 31.9447C26.8745 31.731 26.8793 31.5101 26.8412 31.2946C26.8031 31.079 26.723 30.8731 26.6053 30.6885C26.4877 30.504 26.3348 30.3444 26.1555 30.2189L22.1599 26.5467L28.1321 30.7278C28.3113 30.8537 28.5136 30.943 28.7274 30.9906C28.9411 31.0381 29.1622 31.043 29.3778 31.0049C29.5935 30.9668 29.7995 30.8865 29.9841 30.7686C30.1686 30.6507 30.3281 30.4975 30.4532 30.3178C30.5787 30.1385 30.6677 29.9362 30.715 29.7225C30.7623 29.5088 30.767 29.2879 30.729 29.0723C30.6909 28.8568 30.6107 28.6509 30.4931 28.4663C30.3754 28.2818 30.2226 28.1222 30.0432 27.9967L24.7477 23.4711L31.2632 28.0322C31.4424 28.1582 31.6447 28.2475 31.8585 28.295C32.0722 28.3426 32.2933 28.3474 32.509 28.3093C32.7246 28.2712 32.9306 28.1909 33.1152 28.073C33.2997 27.9551 33.4592 27.8019 33.5844 27.6222C33.7098 27.4429 33.7988 27.2406 33.8461 27.0269C33.8934 26.8132 33.8982 26.5923 33.8601 26.3768C33.822 26.1612 33.7419 25.9553 33.6242 25.7708C33.5065 25.5862 33.3537 25.4266 33.1744 25.3011L5.2588 12.4378L1.40658 18.5722C0.974357 19.2389 1.09213 20.1423 1.71325 20.6734L10.3644 28.0856C10.7592 28.4234 11.1692 28.7415 11.5944 29.04L18.2532 33.7011Z" fill="#EF9645"/>
<path d="M33.1133 24.1689L20.5555 15.1122L20.49 15.0233L20.5489 14.9344L20.6078 14.8756L21.5567 15.3967C22.6211 16.0856 25.0533 17.1033 26.8967 17.1033C28.1578 17.1033 28.9133 16.6311 29.1389 15.7067C29.2071 15.2981 29.1108 14.8791 28.8709 14.5413C28.631 14.2036 28.2672 13.9746 27.8589 13.9044C26.744 13.7376 25.6806 13.3234 24.7467 12.6922L24.13 12.2778C23.4367 11.81 22.6511 11.28 22.0711 10.9378C21.3489 10.5 20.5633 10.2878 19.6678 10.2878C18.3389 10.2878 16.9889 10.7567 15.6844 11.21L14.2778 11.6944C13.6707 11.8986 13.0338 12.0003 12.3933 11.9956C10.6778 11.9956 8.99888 11.3444 7.37555 10.7156L7.21221 10.6511C6.87809 10.5234 6.50999 10.5156 6.17077 10.6291C5.83154 10.7426 5.54223 10.9703 5.35221 11.2733L1.49999 17.41C1.30456 17.716 1.22586 18.0822 1.27829 18.4415C1.33073 18.8008 1.5108 19.1293 1.78555 19.3667L10.4355 26.78C10.8267 27.1144 11.2378 27.4333 11.6578 27.7267L18.5078 32.5222C18.7468 32.6897 19.0165 32.8085 19.3015 32.8717C19.5865 32.9349 19.8811 32.9414 20.1686 32.8907C20.456 32.8401 20.7307 32.7333 20.9769 32.5764C21.2231 32.4196 21.4359 32.2158 21.6033 31.9767C21.738 31.7833 21.7907 31.5444 21.7499 31.3123C21.7091 31.0802 21.5781 30.8737 21.3855 30.7378L19.3489 29.3122C19.2956 29.2748 19.2508 29.2267 19.217 29.1711C19.1833 29.1154 19.1615 29.0534 19.1529 28.9888C19.1443 28.9243 19.1492 28.8587 19.1673 28.7962C19.1853 28.7337 19.2161 28.6756 19.2578 28.6256C19.3328 28.5347 19.4395 28.4755 19.5564 28.4601C19.6733 28.4446 19.7916 28.474 19.8878 28.5422L24.3089 31.6367C24.6469 31.8733 25.065 31.966 25.4714 31.8943C25.8777 31.8226 26.2389 31.5924 26.4755 31.2544C26.7122 30.9164 26.8048 30.4983 26.7332 30.092C26.6615 29.6856 26.4313 29.3244 26.0933 29.0878L21.9555 26.1922C21.9023 26.1548 21.8574 26.1067 21.8237 26.0511C21.79 25.9954 21.7681 25.9334 21.7596 25.8689C21.751 25.8043 21.7559 25.7387 21.774 25.6762C21.792 25.6137 21.8228 25.5556 21.8644 25.5056C21.94 25.4153 22.0466 25.3567 22.1632 25.3413C22.2799 25.3259 22.3981 25.3547 22.4944 25.4222L28.1967 29.4144C28.364 29.5316 28.5528 29.6147 28.7523 29.6589C28.9517 29.7031 29.158 29.7076 29.3591 29.6721C29.5603 29.6366 29.7526 29.5618 29.9249 29.452C30.0972 29.3422 30.2462 29.1996 30.3633 29.0322C30.4805 28.8649 30.5635 28.6761 30.6077 28.4766C30.652 28.2771 30.6564 28.0709 30.6209 27.8697C30.5855 27.6685 30.5107 27.4763 30.4009 27.304C30.2911 27.1317 30.1485 26.9827 29.9811 26.8656L24.5722 23.08C24.5185 23.0429 24.4732 22.995 24.4392 22.9393C24.4051 22.8836 24.3832 22.8214 24.3747 22.7567C24.3662 22.6919 24.3714 22.6262 24.3899 22.5636C24.4084 22.501 24.4399 22.443 24.4822 22.3933C24.5497 22.3129 24.6449 22.2607 24.749 22.2471C24.8532 22.2335 24.9586 22.2595 25.0444 22.32L31.3289 26.7189C31.4963 26.8361 31.6852 26.9191 31.8847 26.9633C32.0842 27.0075 32.2905 27.0119 32.4918 26.9763C32.693 26.9408 32.8853 26.866 33.0576 26.7561C33.2299 26.6463 33.3789 26.5035 33.4961 26.3361C33.6133 26.1687 33.6963 25.9798 33.7405 25.7803C33.7847 25.5807 33.7891 25.3745 33.7536 25.1732C33.718 24.972 33.6432 24.7797 33.5333 24.6074C33.4235 24.4351 33.2808 24.2861 33.1133 24.1689Z" fill="#FFDC5D"/>
<path d="M18.3734 31.0322C18.2956 31.3289 18.1434 31.5856 17.9411 31.7889L16.8256 32.8956C16.6209 33.1017 16.3658 33.2507 16.0858 33.3279C15.8057 33.4051 15.5103 33.4077 15.2289 33.3356C14.9448 33.2616 14.6854 33.1139 14.4767 32.9075C14.268 32.7011 14.1176 32.4432 14.0406 32.1599C13.9635 31.8767 13.9627 31.5781 14.0381 31.2945C14.1135 31.0108 14.2625 30.7521 14.47 30.5444L15.5856 29.4378C15.7903 29.2316 16.0453 29.0826 16.3254 29.0054C16.6055 28.9282 16.9008 28.9256 17.1822 28.9978C17.3941 29.0531 17.5929 29.1496 17.7674 29.2818C17.9419 29.414 18.0886 29.5793 18.1993 29.7682C18.3099 29.9572 18.3822 30.166 18.412 30.3829C18.4419 30.5998 18.4288 30.8204 18.3734 31.0322ZM6.6578 25.5644L8.3278 23.9011C8.51875 23.7104 8.66053 23.4762 8.74095 23.2186C8.82138 22.9609 8.83805 22.6877 8.78952 22.4222C8.74099 22.1567 8.62873 21.907 8.46237 21.6945C8.29601 21.482 8.08053 21.3131 7.83446 21.2022C7.52621 21.0636 7.18299 21.0223 6.85064 21.0838C6.5183 21.1454 6.21263 21.3068 5.97446 21.5467L4.30446 23.21C4.11355 23.4008 3.97183 23.6351 3.89148 23.8928C3.81113 24.1504 3.79456 24.4238 3.8432 24.6892C3.89184 24.9547 4.00423 25.2044 4.1707 25.4169C4.33718 25.6293 4.55276 25.7982 4.79891 25.9089C5.10718 26.0465 5.44997 26.0872 5.78191 26.0257C6.11386 25.9642 6.41929 25.8034 6.6578 25.5644ZM12.44 25.6222C12.6036 25.4695 12.7348 25.2854 12.8257 25.0808C12.9166 24.8763 12.9653 24.6556 12.9691 24.4318C12.9728 24.208 12.9314 23.9857 12.8474 23.7783C12.7634 23.5708 12.6385 23.3824 12.48 23.2243C12.3216 23.0662 12.133 22.9416 11.9254 22.858C11.7178 22.7744 11.4955 22.7334 11.2717 22.7376C11.0479 22.7417 10.8273 22.7909 10.6229 22.8822C10.4185 22.9735 10.2347 23.105 10.0822 23.2689L6.74669 26.6C6.58308 26.7527 6.45192 26.9369 6.36102 27.1414C6.27013 27.3459 6.22136 27.5667 6.21762 27.7904C6.21388 28.0142 6.25526 28.2365 6.33928 28.4439C6.4233 28.6514 6.54824 28.8398 6.70666 28.9979C6.86507 29.156 7.0537 29.2806 7.26131 29.3642C7.46892 29.4478 7.69124 29.4888 7.91502 29.4846C8.1388 29.4805 8.35944 29.4313 8.5638 29.34C8.76816 29.2487 8.95203 29.1172 9.10446 28.9533L12.44 25.6222ZM14.94 28.9556C15.165 28.7302 15.3206 28.445 15.3886 28.1339C15.4565 27.8228 15.4339 27.4988 15.3235 27.2001C15.213 26.9015 15.0193 26.6407 14.7652 26.4487C14.5112 26.2567 14.2075 26.1415 13.89 26.1167C13.6503 26.0986 13.4095 26.133 13.1845 26.2175C12.9594 26.3019 12.7554 26.4343 12.5867 26.6056L10.3589 28.8222C10.1336 29.0476 9.97767 29.3328 9.90952 29.6441C9.84137 29.9553 9.86387 30.2796 9.97437 30.5785C10.0849 30.8774 10.2787 31.1383 10.533 31.3304C10.7872 31.5225 11.0912 31.6376 11.4089 31.6622C11.9145 31.7022 12.38 31.5056 12.7122 31.1733L14.94 28.9556ZM33.3345 24.3589L34.0311 23.7567L26.35 11.7011L12.7167 13.9067C12.4999 13.9433 12.2924 14.0223 12.106 14.1391C11.9197 14.2559 11.7583 14.4082 11.6308 14.5875C11.5034 14.7667 11.4125 14.9692 11.3634 15.1836C11.3143 15.3979 11.3078 15.6198 11.3445 15.8367C12.0756 18.8311 18.0145 16.6067 20.6278 15.1689L33.3345 24.3589Z" fill="#EF9645"/>
<path d="M18.3734 29.9211C18.2956 30.2178 18.1434 30.4745 17.9411 30.6778L16.8256 31.7845C16.6209 31.9906 16.3658 32.1396 16.0858 32.2168C15.8057 32.294 15.5103 32.2966 15.2289 32.2245C14.9448 32.1505 14.6854 32.0028 14.4767 31.7964C14.268 31.59 14.1176 31.3321 14.0406 31.0488C13.9635 30.7656 13.9627 30.467 14.0381 30.1834C14.1135 29.8997 14.2625 29.6409 14.47 29.4333L15.5856 28.3267C15.7903 28.1205 16.0453 27.9715 16.3254 27.8943C16.6055 27.8171 16.9008 27.8145 17.1822 27.8867C17.3941 27.942 17.5929 28.0385 17.7674 28.1707C17.9419 28.3029 18.0886 28.4682 18.1993 28.6571C18.3099 28.8461 18.3822 29.0549 18.412 29.2718C18.4419 29.4887 18.4288 29.7093 18.3734 29.9211ZM6.6578 24.4533L8.3278 22.79C8.51875 22.5993 8.66053 22.3651 8.74096 22.1075C8.82138 21.8498 8.83805 21.5766 8.78952 21.3111C8.74099 21.0456 8.62873 20.7959 8.46237 20.5834C8.29601 20.3709 8.08053 20.2019 7.83446 20.0911C7.52605 19.9533 7.18303 19.9124 6.85086 19.9739C6.51869 20.0354 6.21306 20.1964 5.97446 20.4356L4.30446 22.0989C4.11355 22.2897 3.97183 22.524 3.89148 22.7817C3.81113 23.0393 3.79456 23.3126 3.8432 23.5781C3.89184 23.8436 4.00423 24.0933 4.1707 24.3058C4.33718 24.5182 4.55276 24.6871 4.79891 24.7978C5.10718 24.9354 5.44997 24.9761 5.78191 24.9146C6.11386 24.8531 6.41929 24.6923 6.6578 24.4533ZM12.44 24.5111C12.6036 24.3584 12.7348 24.1743 12.8257 23.9697C12.9166 23.7652 12.9653 23.5445 12.9691 23.3207C12.9728 23.0969 12.9314 22.8746 12.8474 22.6672C12.7634 22.4597 12.6385 22.2713 12.48 22.1132C12.3216 21.9551 12.133 21.8305 11.9254 21.7469C11.7178 21.6633 11.4955 21.6223 11.2717 21.6265C11.0479 21.6306 10.8273 21.6798 10.6229 21.7711C10.4185 21.8624 10.2347 21.9939 10.0822 22.1578L6.74669 25.4889C6.58308 25.6416 6.45192 25.8258 6.36103 26.0303C6.27013 26.2348 6.22136 26.4556 6.21762 26.6793C6.21388 26.9031 6.25526 27.1254 6.33928 27.3328C6.4233 27.5403 6.54824 27.7287 6.70666 27.8868C6.86507 28.0449 7.0537 28.1695 7.26131 28.2531C7.46892 28.3367 7.69124 28.3777 7.91502 28.3735C8.1388 28.3694 8.35945 28.3202 8.5638 28.2289C8.76816 28.1376 8.95203 28.0061 9.10446 27.8422L12.44 24.5111ZM14.94 27.8445C15.165 27.619 15.3206 27.3339 15.3886 27.0228C15.4565 26.7117 15.4339 26.3877 15.3235 26.089C15.213 25.7904 15.0193 25.5296 14.7652 25.3376C14.5112 25.1456 14.2075 25.0304 13.89 25.0056C13.6503 24.9875 13.4095 25.0219 13.1845 25.1064C12.9594 25.1908 12.7554 25.3232 12.5867 25.4945L10.3589 27.7111C10.1336 27.9365 9.97767 28.2217 9.90952 28.533C9.84137 28.8442 9.86387 29.1685 9.97437 29.4674C10.0849 29.7663 10.2787 30.0272 10.533 30.2193C10.7872 30.4113 11.0912 30.5265 11.4089 30.5511C11.9145 30.5911 12.38 30.3945 12.7122 30.0622L14.94 27.8445ZM38.8922 19.56C39.1864 19.3057 39.3787 18.9537 39.4336 18.5687C39.4886 18.1838 39.4024 17.792 39.1911 17.4656L39.1878 17.46L35.3356 10.2145C35.1319 9.88975 34.8218 9.64579 34.4583 9.52421C34.0948 9.40264 33.7003 9.41097 33.3422 9.54778C31.1289 10.4045 28.7045 11.3889 26.3511 10.5889L25.1311 10.17C22.9667 9.42001 20.6134 8.54112 18.4645 9.84334C17.6922 10.2978 16.5334 11.1022 15.7856 11.5989C14.8613 12.215 13.8142 12.623 12.7167 12.7945C12.4994 12.8301 12.2913 12.9085 12.1045 13.025C11.9177 13.1415 11.7558 13.2939 11.6282 13.4734C11.5006 13.6528 11.4098 13.8558 11.3611 14.0705C11.3124 14.2853 11.3068 14.5075 11.3445 14.7245C12.0256 17.5156 17.2334 15.7333 20.0534 14.3145C20.2294 14.2263 20.4263 14.1881 20.6226 14.204C20.8189 14.2198 21.007 14.2892 21.1667 14.4045L34.0378 23.7556L38.8922 19.56Z" fill="#FFCC4D"/>
</svg>
