<svg width="46" height="46" viewBox="0 0 46 46" fill="none" xmlns="http://www.w3.org/2000/svg">
<path d="M24.4113 20.1904C23.4704 19.9617 22.5295 19.5043 21.8238 18.8182C21.1181 18.5896 20.8829 17.9035 20.8829 17.4461C20.8829 16.9887 21.1181 16.3026 21.5886 16.0739C22.2943 15.6165 22.9999 15.1592 23.7056 15.3879C25.117 15.3879 26.2931 16.0739 26.9988 16.9887L29.1159 14.2444C28.4102 13.5583 27.7045 13.1009 26.9988 12.6435C26.2931 12.1861 25.3522 11.9575 24.4113 11.9575V8.75575H21.5886V11.9575C20.4124 12.1861 19.2363 12.8722 18.2954 13.787C17.3545 14.9305 16.6488 16.3026 16.884 17.6748C16.884 19.0469 17.3545 20.4191 18.2954 21.3339C19.4715 22.4773 21.1181 23.1634 22.5295 23.8495C23.2352 24.0782 24.1761 24.5356 24.8818 24.993C25.3522 25.4504 25.5874 26.1364 25.5874 26.8225C25.5874 27.5086 25.3522 28.1947 24.8818 28.8807C24.1761 29.5668 23.2352 29.7955 22.5295 29.7955C21.5886 29.7955 20.4124 29.5668 19.7068 28.8807C19.0011 28.4234 18.2954 27.7373 17.8249 27.0512L15.4727 29.5668C16.1784 30.4816 16.884 31.1677 17.8249 31.8538C19.0011 32.5398 20.4124 33.2259 21.8238 33.2259V36.1989H24.4113V32.7685C25.8227 32.5398 26.9988 31.8538 27.9397 30.939C29.1159 29.7955 29.8215 27.966 29.8215 26.3651C29.8215 24.993 29.3511 23.3921 28.1749 22.4773C26.9988 21.3339 25.8227 20.6478 24.4113 20.1904ZM22.9999 4.18188C12.6499 4.18188 4.18176 12.4148 4.18176 22.4773C4.18176 32.5398 12.6499 40.7728 22.9999 40.7728C33.3499 40.7728 41.8181 32.5398 41.8181 22.4773C41.8181 12.4148 33.3499 4.18188 22.9999 4.18188ZM22.9999 38.2572C14.0613 38.2572 6.76926 31.1677 6.76926 22.4773C6.76926 13.787 14.0613 6.69751 22.9999 6.69751C31.9386 6.69751 39.2306 13.787 39.2306 22.4773C39.2306 31.1677 31.9386 38.2572 22.9999 38.2572Z" fill="#FCC02A"/>
</svg>
