<svg width="32" height="32" viewBox="0 0 32 32" fill="none" xmlns="http://www.w3.org/2000/svg">
<path fill-rule="evenodd" clip-rule="evenodd" d="M5.93 25.39C5.95801 25.0972 5.9211 24.8018 5.82188 24.5249C5.72267 24.248 5.56359 23.9964 5.356 23.788C3.236 21.66 2 18.936 2 16C2 9.616 8.008 4 16 4C23.992 4 30 9.616 30 16C30 22.384 23.992 28 16 28C14.5901 28.0034 13.186 27.8205 11.824 27.456C11.348 27.3284 10.8416 27.3811 10.402 27.604C9.628 27.996 7.922 28.744 5.134 29.39C5.52262 28.0842 5.78909 26.7451 5.93 25.39ZM4.33 31.606L4.37 31.598C8.03 30.872 10.266 29.914 11.306 29.388C12.8369 29.7977 14.4152 30.0035 16 30C24.836 30 32 23.732 32 16C32 8.268 24.836 2 16 2C7.164 2 0 8.268 0 16C0 19.52 1.486 22.74 3.94 25.2C3.76896 26.7803 3.41733 28.3358 2.892 29.836L2.886 29.858C2.73654 30.2876 2.5738 30.7125 2.398 31.132C2.24 31.504 2.546 31.92 2.944 31.856C3.4073 31.7801 3.86936 31.6967 4.33 31.606ZM16 11.986C19.328 8.564 27.65 14.552 16 22.25C4.35 14.55 12.672 8.564 16 11.986Z" fill="#F5C345"/>
</svg>
