<svg width="50" height="50" viewBox="0 0 50 50" fill="none" xmlns="http://www.w3.org/2000/svg">
<path d="M20.5729 27.3437C19.3576 26.1285 18.75 24.6528 18.75 22.9167V10.4167C18.75 8.68055 19.3576 7.20485 20.5729 5.98957C21.7882 4.7743 23.2639 4.16666 25 4.16666C26.7361 4.16666 28.2118 4.7743 29.4271 5.98957C30.6423 7.20485 31.25 8.68055 31.25 10.4167V22.9167C31.25 24.6528 30.6423 26.1285 29.4271 27.3437C28.2118 28.559 26.7361 29.1667 25 29.1667C23.2639 29.1667 21.7882 28.559 20.5729 27.3437ZM22.9167 43.75V37.3437C19.3055 36.8576 16.3194 35.243 13.9583 32.5C11.5972 29.7569 10.4167 26.5625 10.4167 22.9167H14.5833C14.5833 25.7986 15.5993 28.2555 17.6312 30.2875C19.6632 32.3194 22.1194 33.3347 25 33.3333C27.8805 33.3319 30.3375 32.316 32.3708 30.2854C34.4042 28.2548 35.4194 25.7986 35.4167 22.9167H39.5833C39.5833 26.5625 38.4028 29.7569 36.0417 32.5C33.6805 35.243 30.6944 36.8576 27.0833 37.3437V43.75H22.9167ZM26.4854 24.4021C26.884 24.0021 27.0833 23.5069 27.0833 22.9167V10.4167C27.0833 9.82638 26.8833 9.33193 26.4833 8.93332C26.0833 8.53471 25.5889 8.33471 25 8.33332C24.4111 8.33193 23.9167 8.53193 23.5167 8.93332C23.1167 9.33471 22.9167 9.82916 22.9167 10.4167V22.9167C22.9167 23.5069 23.1167 24.0021 23.5167 24.4021C23.9167 24.8021 24.4111 25.0014 25 25C25.5889 24.9986 26.084 24.7986 26.4854 24.4" fill="#1980E6"/>
</svg>
