<svg width="16" height="16" viewBox="0 0 16 16" fill="none" xmlns="http://www.w3.org/2000/svg">
<path d="M3.07733 12.6666C2.77022 12.6666 2.514 12.5639 2.30867 12.3586C2.10333 12.1533 2.00044 11.8968 2 11.5893V4.41059C2 4.10347 2.10289 3.84725 2.30867 3.64192C2.51444 3.43659 2.77044 3.3337 3.07667 3.33325H12.9233C13.23 3.33325 13.486 3.43614 13.6913 3.64192C13.8967 3.8477 13.9996 4.10392 14 4.41059V11.5899C14 11.8966 13.8971 12.1528 13.6913 12.3586C13.4856 12.5644 13.2296 12.667 12.9233 12.6666H3.07733ZM13.3333 4.58992L8.29867 7.88592C8.25156 7.91036 8.204 7.93103 8.156 7.94792C8.10756 7.96436 8.05556 7.97259 8 7.97259C7.94444 7.97259 7.89244 7.96436 7.844 7.94792C7.79556 7.93147 7.748 7.91081 7.70133 7.88592L2.66667 4.58925V11.5893C2.66667 11.7093 2.70511 11.8077 2.782 11.8846C2.85889 11.9615 2.95733 11.9999 3.07733 11.9999H12.9233C13.0429 11.9999 13.1411 11.9615 13.218 11.8846C13.2949 11.8077 13.3333 11.7093 13.3333 11.5893V4.58992ZM8 7.33325L13.128 3.99992H2.872L8 7.33325ZM2.66667 4.73059V4.18992V4.21259V3.99992V4.21325V4.17859V4.73059Z" fill="black"/>
</svg>
