<svg width="84" height="70" viewBox="0 0 84 70" fill="none" xmlns="http://www.w3.org/2000/svg">
<path d="M80.9038 61.7976L70.898 52.2941L73.9067 49.4612L84 58.8824L80.9038 61.7976ZM66.9271 13.8888L63.9184 11.0559L73.9242 1.63059L77.0204 4.46765L66.9271 13.8888ZM17.0729 13.9712L7.06268 4.46353L10.0758 1.62647L20.1691 11.0518L17.0729 13.9712ZM3.01312 61.7935L0 58.8782L10.0102 49.4529L13.102 52.29L3.01312 61.7935ZM24.3542 61.2788L42 51.3182L59.7289 61.4641L55.1108 42.6053L70.6093 30.0259L50.191 28.2965L42 10.4876L33.8921 28.1853L13.4738 29.8406L28.9723 42.5971L24.3542 61.2788ZM17.6939 70L24.1225 44.1618L2.6414 26.6865L30.9359 24.43L42 0L53.1516 24.43L81.4461 26.6865L59.965 44.1618L66.3936 70L42 56.2471L17.6939 70Z" fill="#FCC02A"/>
</svg>
