<svg width="50" height="50" viewBox="0 0 50 50" fill="none" xmlns="http://www.w3.org/2000/svg">
<path d="M21.1375 6.76667C21.4488 5.99732 21.9827 5.33845 22.6709 4.87453C23.359 4.4106 24.1701 4.16276 25 4.16276C25.8299 4.16276 26.641 4.4106 27.3291 4.87453C28.0173 5.33845 28.5512 5.99732 28.8625 6.76667C31.9438 7.61299 34.6618 9.44789 36.5987 11.9893C38.5356 14.5307 39.5842 17.638 39.5833 20.8333V30.6188L43.4 36.3438C43.6093 36.6575 43.7296 37.0222 43.7479 37.3989C43.7662 37.7757 43.6819 38.1503 43.5039 38.4828C43.326 38.8154 43.0611 39.0934 42.7375 39.2872C42.414 39.4811 42.0438 39.5834 41.6667 39.5833H32.2188C31.9679 41.319 31.1001 42.9061 29.7744 44.054C28.4486 45.202 26.7537 45.8338 25 45.8338C23.2463 45.8338 21.5514 45.202 20.2256 44.054C18.8999 42.9061 18.0321 41.319 17.7813 39.5833H8.33334C7.95617 39.5834 7.58605 39.4811 7.26249 39.2872C6.93892 39.0934 6.67404 38.8154 6.4961 38.4828C6.31817 38.1503 6.23385 37.7757 6.25215 37.3989C6.27045 37.0222 6.39068 36.6575 6.60001 36.3438L10.4167 30.6188V20.8333C10.4167 14.1167 14.9583 8.45833 21.1375 6.76667ZM22.0542 39.5833C22.2693 40.193 22.6683 40.721 23.1961 41.0944C23.7239 41.4678 24.3545 41.6684 25.001 41.6684C25.6476 41.6684 26.2782 41.4678 26.806 41.0944C27.3338 40.721 27.7328 40.193 27.9479 39.5833H22.0542ZM25 10.4167C22.2373 10.4167 19.5878 11.5141 17.6343 13.4676C15.6808 15.4211 14.5833 18.0707 14.5833 20.8333V31.25C14.5834 31.6615 14.4616 32.0639 14.2333 32.4063L12.2271 35.4167H37.7708L35.7646 32.4063C35.537 32.0636 35.416 31.6613 35.4167 31.25V20.8333C35.4167 18.0707 34.3192 15.4211 32.3657 13.4676C30.4122 11.5141 27.7627 10.4167 25 10.4167Z" fill="#6B6661"/>
</svg>
