<svg width="44" height="44" viewBox="0 0 44 44" fill="none" xmlns="http://www.w3.org/2000/svg">
<path d="M22.0321 36.9708L21.814 37.2086L21.574 36.9708C11.2124 26.7236 4.3628 19.9476 4.3628 13.0765C4.3628 8.32141 7.6349 4.75509 11.9977 4.75509C15.357 4.75509 18.6291 7.13264 19.7853 10.3661H23.8427C24.9988 7.13264 28.2709 4.75509 31.6303 4.75509C35.9931 4.75509 39.2652 8.32141 39.2652 13.0765C39.2652 19.9476 32.4156 26.7236 22.0321 36.9708ZM31.6303 0C27.8346 0 24.1917 1.92581 21.814 4.9453C19.4363 1.92581 15.7933 0 11.9977 0C5.27899 0 0 5.72989 0 13.0765C0 22.0399 7.41676 29.3865 18.651 40.4896L21.814 43.628L24.977 40.4896C36.2112 29.3865 43.628 22.0399 43.628 13.0765C43.628 5.72989 38.349 0 31.6303 0Z" fill="#158841"/>
</svg>
