<svg width="44" height="44" viewBox="0 0 44 44" fill="none" xmlns="http://www.w3.org/2000/svg">
<path d="M17.2694 18.1783C18.1049 18.1783 18.9323 18.0137 19.7042 17.694C20.4761 17.3743 21.1775 16.9056 21.7683 16.3148C22.3591 15.724 22.8278 15.0226 23.1475 14.2507C23.4672 13.4788 23.6318 12.6514 23.6318 11.8159C23.6318 10.9804 23.4672 10.153 23.1475 9.38111C22.8278 8.60919 22.3591 7.9078 21.7683 7.317C21.1775 6.72619 20.4761 6.25754 19.7042 5.9378C18.9323 5.61806 18.1049 5.45349 17.2694 5.45349C15.582 5.45349 13.9637 6.12382 12.7705 7.317C11.5773 8.51018 10.907 10.1285 10.907 11.8159C10.907 13.5033 11.5773 15.1216 12.7705 16.3148C13.9637 17.508 15.582 18.1783 17.2694 18.1783Z" fill="#158841" stroke="#158841" stroke-width="2" stroke-linecap="round" stroke-linejoin="round"/>
<path d="M29.6379 6.36243C30.5786 6.92824 31.3569 7.72782 31.8972 8.68343C32.4374 9.63904 32.7212 10.7182 32.721 11.8159C32.7212 12.9137 32.4374 13.9928 31.8972 14.9484C31.3569 15.904 30.5786 16.7036 29.6379 17.2694" stroke="#158841" stroke-width="2" stroke-linecap="round" stroke-linejoin="round"/>
<path d="M3.63568 37.0837V38.1744H30.9032V37.0837C30.9032 33.0118 30.9032 30.9758 30.1106 29.4197C29.4135 28.0516 28.3011 26.9393 26.933 26.2422C25.377 25.4496 23.341 25.4496 19.269 25.4496H15.2698C11.1979 25.4496 9.16189 25.4496 7.60583 26.2422C6.2377 26.9393 5.12537 28.0516 4.42826 29.4197C3.63568 30.9758 3.63568 33.0118 3.63568 37.0837Z" fill="#158841" stroke="#158841" stroke-width="2" stroke-linecap="round" stroke-linejoin="round"/>
<path d="M39.9923 38.1744V37.0837C39.9923 33.0118 39.9923 30.9758 39.1997 29.4198C38.5026 28.0516 37.3903 26.9393 36.0222 26.2422" stroke="#158841" stroke-width="2" stroke-linecap="round" stroke-linejoin="round"/>
</svg>
