<svg width="40" height="40" viewBox="0 0 40 40" fill="none" xmlns="http://www.w3.org/2000/svg">
<g clip-path="url(#clip0_784_17)">
<path d="M32.5444 5.55556H30V7.77778H32.2222V35.5556H7.77778V7.77778H10V5.55556H7.77778C7.50567 5.51621 7.22831 5.535 6.964 5.61071C6.69969 5.68642 6.45445 5.81732 6.24444 5.99478C6.03444 6.17223 5.86445 6.3922 5.74571 6.64017C5.62696 6.88814 5.56215 7.15848 5.55556 7.43334V35.9C5.55701 36.1481 5.60731 36.3934 5.70358 36.622C5.79986 36.8506 5.94022 37.058 6.11665 37.2324C6.29308 37.4068 6.50213 37.5447 6.73186 37.6383C6.96159 37.7318 7.2075 37.7792 7.45556 37.7778H32.5444C32.7925 37.7792 33.0384 37.7318 33.2681 37.6383C33.4979 37.5447 33.7069 37.4068 33.8834 37.2324C34.0598 37.058 34.2001 36.8506 34.2964 36.622C34.3927 36.3934 34.443 36.1481 34.4444 35.9V7.43334C34.443 7.18529 34.3927 6.93995 34.2964 6.71133C34.2001 6.48272 34.0598 6.27531 33.8834 6.10094C33.7069 5.92657 33.4979 5.78866 33.2681 5.69508C33.0384 5.60151 32.7925 5.5541 32.5444 5.55556Z" fill="#808080"/>
<path d="M28.8889 8.14444C28.886 7.45872 28.6123 6.80193 28.1274 6.31705C27.6425 5.83217 26.9857 5.55847 26.3 5.55555H24.3C24.0552 4.59953 23.4992 3.75217 22.7197 3.14706C21.9401 2.54195 20.9813 2.2135 19.9944 2.2135C19.0076 2.2135 18.0488 2.54195 17.2692 3.14706C16.4897 3.75217 15.9337 4.59953 15.6889 5.55555H13.7C13.0143 5.55847 12.3575 5.83217 11.8726 6.31705C11.3877 6.80193 11.114 7.45872 11.1111 8.14444V12.2222H28.8889V8.14444ZM26.6667 9.99999H13.3333V8.14444C13.3333 8.09629 13.3428 8.04861 13.3612 8.00412C13.3797 7.95963 13.4067 7.91921 13.4407 7.88517C13.4748 7.85112 13.5152 7.82411 13.5597 7.80568C13.6042 7.78725 13.6519 7.77777 13.7 7.77777H17.7778V6.66666C17.7778 6.07729 18.0119 5.51206 18.4287 5.09531C18.8454 4.67856 19.4106 4.44444 20 4.44444C20.5894 4.44444 21.1546 4.67856 21.5714 5.09531C21.9881 5.51206 22.2222 6.07729 22.2222 6.66666V7.77777H26.3C26.3972 7.77777 26.4905 7.8164 26.5593 7.88517C26.628 7.95393 26.6667 8.04719 26.6667 8.14444V9.99999Z" fill="#808080"/>
<path d="M12.2222 15.5556H27.7778V17.7778H12.2222V15.5556Z" fill="#808080"/>
<path d="M12.2222 20H27.7778V22.2222H12.2222V20Z" fill="#808080"/>
<path d="M12.2222 24.4445H27.7778V26.6667H12.2222V24.4445Z" fill="#808080"/>
<path d="M12.2222 28.8889H27.7778V31.1111H12.2222V28.8889Z" fill="#808080"/>
</g>
<defs>
<clipPath id="clip0_784_17">
<rect width="40" height="40" fill="white"/>
</clipPath>
</defs>
</svg>
