<svg width="90" height="30" viewBox="0 0 90 30" fill="none" xmlns="http://www.w3.org/2000/svg">
<path d="M15 8.75C16.2246 8.74993 17.4222 9.10961 18.4442 9.78437C19.4661 10.4591 20.2673 11.4192 20.7482 12.5455C21.2291 13.6717 21.3686 14.9143 21.1493 16.1191C20.9301 17.3239 20.3617 18.4378 19.5148 19.3223C18.6679 20.2069 17.5798 20.8231 16.3857 21.0945C15.1915 21.366 13.944 21.2806 12.7979 20.8491C11.6519 20.4175 10.6579 19.6588 9.93932 18.6672C9.22079 17.6756 8.8094 16.4947 8.75625 15.2712L8.75 15L8.75625 14.7288C8.82615 13.1197 9.51451 11.5997 10.6778 10.4858C11.841 9.37193 13.3894 8.75009 15 8.75Z" fill="black"/>
<path d="M45 8.75C46.2246 8.74993 47.4222 9.10961 48.4442 9.78437C49.4661 10.4591 50.2673 11.4192 50.7482 12.5455C51.2291 13.6717 51.3686 14.9143 51.1493 16.1191C50.9301 17.3239 50.3617 18.4378 49.5148 19.3223C48.6679 20.2069 47.5798 20.8231 46.3857 21.0945C45.1915 21.366 43.944 21.2806 42.7979 20.8491C41.6519 20.4175 40.6579 19.6588 39.9393 18.6672C39.2208 17.6756 38.8094 16.4947 38.7563 15.2712L38.75 15L38.7563 14.7288C38.8261 13.1197 39.5145 11.5997 40.6778 10.4858C41.841 9.37193 43.3894 8.75009 45 8.75Z" fill="black"/>
<path d="M75 8.75C76.2246 8.74993 77.4222 9.10961 78.4442 9.78437C79.4661 10.4591 80.2673 11.4192 80.7482 12.5455C81.2291 13.6717 81.3686 14.9143 81.1493 16.1191C80.9301 17.3239 80.3617 18.4378 79.5148 19.3223C78.6679 20.2069 77.5798 20.8231 76.3857 21.0945C75.1915 21.366 73.944 21.2806 72.7979 20.8491C71.6519 20.4175 70.6579 19.6588 69.9393 18.6672C69.2208 17.6756 68.8094 16.4947 68.7563 15.2712L68.75 15L68.7563 14.7288C68.8261 13.1197 69.5145 11.5997 70.6778 10.4858C71.841 9.37193 73.3894 8.75009 75 8.75Z" fill="black"/>
</svg>
