<svg width="100" height="110" viewBox="0 0 100 110" fill="none" xmlns="http://www.w3.org/2000/svg">
<path fill-rule="evenodd" clip-rule="evenodd" d="M50 17.1875C36.4958 17.1875 26.0167 26.4917 24.2292 37.8125H33.3333C34.1621 37.8125 34.957 38.1747 35.543 38.8193C36.1291 39.464 36.4583 40.3383 36.4583 41.25V73.3333C36.4583 74.245 36.1291 75.1194 35.543 75.764C34.957 76.4087 34.1621 76.7708 33.3333 76.7708H20.8333C17.7944 76.7708 14.8799 75.4429 12.7311 73.0792C10.5822 70.7154 9.375 67.5095 9.375 64.1667V50.4167C9.37447 47.6442 10.205 44.949 11.7378 42.7483C13.2707 40.5475 15.4205 38.9642 17.8542 38.2433C19.4458 22.1833 33.6417 10.3125 50 10.3125C66.3583 10.3125 80.5542 22.1833 82.1458 38.2433C84.5795 38.9642 86.7293 40.5475 88.2622 42.7483C89.795 44.949 90.6255 47.6442 90.625 50.4167V64.1667C90.6258 66.9475 89.7906 69.6505 88.2495 71.8548C86.7083 74.0591 84.5477 75.6409 82.1042 76.3538C81.4418 81.5544 79.0929 86.3165 75.4902 89.7623C71.8876 93.208 67.2741 95.1052 62.5 95.1042H57.7292C57.004 97.0762 55.6778 98.7094 53.9779 99.7239C52.2781 100.738 50.3104 101.071 48.4121 100.665C46.5139 100.258 44.8031 99.1383 43.5732 97.4966C42.3432 95.855 41.6706 93.794 41.6706 91.6667C41.6706 89.5394 42.3432 87.4783 43.5732 85.8367C44.8031 84.1951 46.5139 83.0751 48.4121 82.6688C50.3104 82.2624 52.2781 82.595 53.9779 83.6095C55.6778 84.6239 57.004 86.2571 57.7292 88.2292H62.5C65.5486 88.2299 68.5083 87.0991 70.9 85.0196C73.2918 82.9402 74.9756 80.0338 75.6792 76.7708H66.6667C65.8379 76.7708 65.043 76.4087 64.457 75.764C63.8709 75.1194 63.5417 74.245 63.5417 73.3333V41.25C63.5417 40.3383 63.8709 39.464 64.457 38.8193C65.043 38.1747 65.8379 37.8125 66.6667 37.8125H75.7708C73.9833 26.4917 63.5042 17.1875 50 17.1875ZM20.8333 44.6875C17.9583 44.6875 15.625 47.2542 15.625 50.4167V64.1667C15.625 67.3292 17.9583 69.8958 20.8333 69.8958H30.2083V44.6875H20.8333ZM84.375 50.4167C84.375 47.2542 82.0417 44.6875 79.1667 44.6875H69.7917V69.8958H79.1667C82.0417 69.8958 84.375 67.3292 84.375 64.1667V50.4167Z" fill="#1980E6"/>
</svg>
