<svg width="22" height="18" viewBox="0 0 22 18" fill="none" xmlns="http://www.w3.org/2000/svg">
<path d="M0.75 8.96494C0.75 5.09262 0.75 3.15595 1.94758 1.95349C3.14517 0.751027 5.07131 0.75 8.92463 0.75H13.0119C16.8653 0.75 18.7924 0.75 19.989 1.95349C21.1856 3.15698 21.1866 5.09262 21.1866 8.96494C21.1866 12.8373 21.1866 14.7739 19.989 15.9764C18.7914 17.1788 16.8653 17.1799 13.0119 17.1799H8.92463C5.07131 17.1799 3.14415 17.1799 1.94758 15.9764C0.751022 14.7729 0.75 12.8373 0.75 8.96494Z" stroke="#6B6661" stroke-opacity="0.5" stroke-width="1.5"/>
<path d="M4.83736 4.85742L7.04349 6.70578C8.92059 8.27689 9.85863 9.06244 10.9683 9.06244C12.078 9.06244 13.0171 8.27689 14.8932 6.70476L17.0993 4.85742" stroke="#6B6661" stroke-opacity="0.5" stroke-width="1.5" stroke-linecap="round"/>
</svg>
