<svg width="40" height="40" viewBox="0 0 40 40" fill="none" xmlns="http://www.w3.org/2000/svg">
<path d="M21.3967 29.3967C21.7989 28.9933 22 28.5 22 27.9167C22 27.3333 21.7989 26.84 21.3967 26.4367C20.9944 26.0333 20.5011 25.8322 19.9167 25.8333C19.3322 25.8344 18.8394 26.0361 18.4383 26.4383C18.0372 26.8405 17.8356 27.3333 17.8333 27.9167C17.8311 28.5 18.0328 28.9933 18.4383 29.3967C18.8439 29.8 19.3367 30.0011 19.9167 30C20.4967 29.9989 20.99 29.7972 21.3967 29.395M18.4167 23.5833H21.5C21.5 22.6667 21.6044 21.9444 21.8133 21.4167C22.0222 20.8889 22.6122 20.1667 23.5833 19.25C24.3056 18.5278 24.875 17.84 25.2917 17.1867C25.7083 16.5333 25.9167 15.7489 25.9167 14.8333C25.9167 13.2778 25.3472 12.0833 24.2083 11.25C23.0694 10.4167 21.7222 9.99999 20.1667 9.99999C18.5833 9.99999 17.2989 10.4167 16.3133 11.25C15.3278 12.0833 14.64 13.0833 14.25 14.25L17 15.3333C17.1389 14.8333 17.4517 14.2917 17.9383 13.7083C18.425 13.125 19.1678 12.8333 20.1667 12.8333C21.0556 12.8333 21.7222 13.0767 22.1667 13.5633C22.6111 14.05 22.8333 14.5844 22.8333 15.1667C22.8333 15.7222 22.6667 16.2433 22.3333 16.73C22 17.2167 21.5833 17.6678 21.0833 18.0833C19.8611 19.1667 19.1111 19.9861 18.8333 20.5417C18.5556 21.0972 18.4167 22.1111 18.4167 23.5833ZM20 36.6667C17.6944 36.6667 15.5278 36.2294 13.5 35.355C11.4722 34.4805 9.70833 33.2928 8.20833 31.7917C6.70833 30.2905 5.52111 28.5267 4.64666 26.5C3.77222 24.4733 3.33444 22.3067 3.33333 20C3.33222 17.6933 3.77 15.5267 4.64666 13.5C5.52333 11.4733 6.71055 9.70943 8.20833 8.20832C9.70611 6.70721 11.47 5.51999 13.5 4.64666C15.53 3.77332 17.6967 3.33554 20 3.33332C22.3033 3.3311 24.47 3.76888 26.5 4.64666C28.53 5.52443 30.2939 6.71166 31.7917 8.20832C33.2894 9.70499 34.4772 11.4689 35.355 13.5C36.2328 15.5311 36.67 17.6978 36.6667 20C36.6633 22.3022 36.2256 24.4689 35.3533 26.5C34.4811 28.5311 33.2939 30.295 31.7917 31.7917C30.2894 33.2883 28.5256 34.4761 26.5 35.355C24.4744 36.2339 22.3078 36.6711 20 36.6667ZM20 33.3333C23.7222 33.3333 26.875 32.0417 29.4583 29.4583C32.0417 26.875 33.3333 23.7222 33.3333 20C33.3333 16.2778 32.0417 13.125 29.4583 10.5417C26.875 7.95832 23.7222 6.66666 20 6.66666C16.2778 6.66666 13.125 7.95832 10.5417 10.5417C7.95833 13.125 6.66666 16.2778 6.66666 20C6.66666 23.7222 7.95833 26.875 10.5417 29.4583C13.125 32.0417 16.2778 33.3333 20 33.3333Z" fill="#808080"/>
</svg>
