<svg width="44" height="44" viewBox="0 0 44 44" fill="none" xmlns="http://www.w3.org/2000/svg">
<path d="M21.814 39.9923C17.6026 38.9319 14.1257 36.5154 11.3832 32.7427C8.64074 28.9701 7.27009 24.7819 7.2713 20.1779V9.08912L21.814 3.63562L36.3566 9.08912V20.1779C36.3566 24.7831 34.986 28.972 32.2447 32.7446C29.5034 36.5172 26.0265 38.9331 21.814 39.9923ZM21.814 36.1748C24.9649 35.175 27.5704 33.1754 29.6306 30.176C31.6908 27.1765 32.721 23.8439 32.721 20.1779V11.5886L21.814 7.49851L10.907 11.5886V20.1779C10.907 23.8439 11.9371 27.1765 13.9973 30.176C16.0575 33.1754 18.663 35.175 21.814 36.1748Z" fill="#158841"/>
</svg>
