<svg width="28" height="27" viewBox="0 0 28 27" fill="none" xmlns="http://www.w3.org/2000/svg">
<path d="M24.8889 2.7H18.3867C17.7333 1.134 16.0222 0 14 0C11.9778 0 10.2667 1.134 9.61333 2.7H3.11111C2.28599 2.7 1.49467 2.98446 0.911223 3.49081C0.327777 3.99716 0 4.68392 0 5.4V24.3C0 25.0161 0.327777 25.7028 0.911223 26.2092C1.49467 26.7155 2.28599 27 3.11111 27H24.8889C25.714 27 26.5053 26.7155 27.0888 26.2092C27.6722 25.7028 28 25.0161 28 24.3V5.4C28 4.68392 27.6722 3.99716 27.0888 3.49081C26.5053 2.98446 25.714 2.7 24.8889 2.7ZM14 2.7C14.4126 2.7 14.8082 2.84223 15.0999 3.09541C15.3917 3.34858 15.5556 3.69196 15.5556 4.05C15.5556 4.40804 15.3917 4.75142 15.0999 5.00459C14.8082 5.25777 14.4126 5.4 14 5.4C13.5874 5.4 13.1918 5.25777 12.9001 5.00459C12.6083 4.75142 12.4444 4.40804 12.4444 4.05C12.4444 3.69196 12.6083 3.34858 12.9001 3.09541C13.1918 2.84223 13.5874 2.7 14 2.7ZM6.22222 8.1H21.7778V5.4H24.8889V24.3H3.11111V5.4H6.22222V8.1Z" fill="#1980E6"/>
</svg>
