<svg width="41" height="40" viewBox="0 0 41 40" fill="none" xmlns="http://www.w3.org/2000/svg">
<path d="M18.45 30H22.55V22H30.75V18H22.55V10H18.45V18H10.25V22H18.45V30ZM20.5 40C17.6642 40 14.9992 39.4747 12.505 38.424C10.0108 37.3733 7.84125 35.9487 5.99625 34.15C4.15125 32.3513 2.69097 30.2347 1.6154 27.8C0.539836 25.3653 0.00136926 22.7653 2.59493e-06 20C-0.00136407 17.2347 0.537102 14.6347 1.6154 12.2C2.6937 9.76533 4.15398 7.64866 5.99625 5.85C7.83851 4.05133 10.0081 2.62667 12.505 1.576C15.0019 0.525333 17.6669 0 20.5 0C23.3331 0 25.9981 0.525333 28.495 1.576C30.9919 2.62667 33.1615 4.05133 35.0037 5.85C36.846 7.64866 38.307 9.76533 39.3866 12.2C40.4663 14.6347 41.0041 17.2347 41 20C40.9959 22.7653 40.4574 25.3653 39.3846 27.8C38.3117 30.2347 36.8515 32.3513 35.0037 34.15C33.156 35.9487 30.9864 37.374 28.495 38.426C26.0035 39.478 23.3386 40.0027 20.5 40ZM20.5 36C25.0783 36 28.9562 34.45 32.1337 31.35C35.3112 28.25 36.9 24.4667 36.9 20C36.9 15.5333 35.3112 11.75 32.1337 8.65C28.9562 5.55 25.0783 4 20.5 4C15.9217 4 12.0437 5.55 8.86625 8.65C5.68875 11.75 4.1 15.5333 4.1 20C4.1 24.4667 5.68875 28.25 8.86625 31.35C12.0437 34.45 15.9217 36 20.5 36Z" fill="#158841"/>
</svg>
