<svg width="51" height="51" viewBox="0 0 51 51" fill="none" xmlns="http://www.w3.org/2000/svg">
<path d="M25.1288 42.0571C29.5485 42.1271 33.815 40.4384 36.9896 37.3627C40.1643 34.2869 41.9871 30.076 42.0571 25.6563C42.127 21.2366 40.4384 16.9701 37.3626 13.7954C34.2868 10.6207 30.0759 8.79792 25.6562 8.72798C21.2365 8.65804 16.97 10.3467 13.7953 13.4224C10.6207 16.4982 8.79785 20.7091 8.72791 25.1288C8.65796 29.5486 10.3466 33.815 13.4224 36.9897C16.4981 40.1644 20.709 41.9872 25.1288 42.0571ZM25.7221 4.56184C28.4577 4.60513 31.1579 5.1868 33.6686 6.27363C36.1794 7.36047 38.4514 8.93119 40.3551 10.8961C42.2588 12.861 43.7569 15.1817 44.7637 17.7256C45.7706 20.2694 46.2665 22.9867 46.2232 25.7222C46.1358 31.2469 43.8573 36.5105 39.8889 40.3552C35.9206 44.1999 30.5875 46.3107 25.0628 46.2233C13.5434 46.041 4.38045 36.5198 4.56176 25.0629C4.64919 19.5383 6.9277 14.2746 10.896 10.4299C14.8644 6.58521 20.1975 4.4744 25.7221 4.56184ZM26.5989 14.9937L26.4258 25.9298L35.7116 31.64L34.1087 34.1774L23.2764 27.4427L23.4742 14.9442L26.5989 14.9937Z" fill="#158841"/>
</svg>
