<svg width="40" height="40" viewBox="0 0 40 40" fill="none" xmlns="http://www.w3.org/2000/svg">
<g clip-path="url(#clip0_863_800)">
<path fill-rule="evenodd" clip-rule="evenodd" d="M18.6667 12C18.6667 8.8174 19.931 5.76516 22.1814 3.51472C24.4318 1.26428 27.4841 0 30.6667 0L40 0V9.33333C40 12.5159 38.7357 15.5682 36.4853 17.8186C34.2348 20.0691 31.1826 21.3333 28 21.3333H21.3333V40H18.6667V29.3333H12C8.8174 29.3333 5.76516 28.0691 3.51472 25.8186C1.26428 23.5682 0 20.5159 0 17.3333L0 8H9.33333C13.104 8 16.4667 9.73867 18.6667 12.456V12ZM21.7227 16.3893L29.7227 8.38933L31.6107 10.2773L23.6107 18.2773L21.7227 16.3893ZM16.3893 26.2773L8.38933 18.2773L10.2773 16.3893L18.2773 24.3893L16.3893 26.2773Z" fill="#158841"/>
</g>
<defs>
<clipPath id="clip0_863_800">
<rect width="40" height="40" fill="white"/>
</clipPath>
</defs>
</svg>
