<svg width="38" height="33" viewBox="0 0 38 33" fill="none" xmlns="http://www.w3.org/2000/svg">
<path d="M20.7562 13.7794C21.8952 11.9549 22.5076 9.76751 22.5076 7.52388C22.5076 5.28025 21.8952 3.09287 20.7562 1.26838C21.8227 0.435452 23.0846 -0.00680225 24.375 7.90999e-05C26.1155 7.90999e-05 27.7847 0.792764 29.0154 2.20375C30.2461 3.61474 30.9375 5.52845 30.9375 7.52388C30.9375 9.51932 30.2461 11.433 29.0154 12.844C27.7847 14.255 26.1155 15.0477 24.375 15.0477C23.0846 15.0546 21.8227 14.6123 20.7562 13.7794ZM6.5625 7.52388C6.5625 6.03581 6.94738 4.58116 7.66848 3.34388C8.38958 2.1066 9.4145 1.14225 10.6136 0.572795C11.8128 0.00333605 13.1323 -0.14566 14.4053 0.144647C15.6783 0.434955 16.8476 1.15153 17.7654 2.20375C18.6832 3.25597 19.3082 4.59659 19.5614 6.05606C19.8146 7.51554 19.6847 9.02832 19.188 10.4031C18.6913 11.7779 17.8501 12.953 16.7709 13.7797C15.6917 14.6064 14.4229 15.0477 13.125 15.0477C11.3845 15.0477 9.71532 14.255 8.48461 12.844C7.2539 11.433 6.5625 9.51932 6.5625 7.52388ZM10.3125 7.52388C10.3125 8.16163 10.4775 8.78505 10.7865 9.31531C11.0955 9.84558 11.5348 10.2589 12.0487 10.5029C12.5626 10.747 13.1281 10.8108 13.6737 10.6864C14.2193 10.562 14.7204 10.2549 15.1137 9.80394C15.5071 9.35299 15.7749 8.77844 15.8835 8.15295C15.992 7.52746 15.9363 6.87912 15.7234 6.28992C15.5105 5.70073 15.1501 5.19713 14.6875 4.84282C14.225 4.48851 13.6813 4.2994 13.125 4.2994C12.3791 4.2994 11.6637 4.63912 11.1363 5.24383C10.6088 5.84853 10.3125 6.6687 10.3125 7.52388ZM26.25 27.9456V32.245H0V27.9456C0 27.9456 0 19.347 13.125 19.347C26.25 19.347 26.25 27.9456 26.25 27.9456ZM22.5 27.9456C22.2375 26.2689 20.0063 23.6463 13.125 23.6463C6.24375 23.6463 3.88125 26.4624 3.75 27.9456M26.1562 19.347C27.3055 20.3718 28.2451 21.6726 28.9091 23.1581C29.5731 24.6435 29.9455 26.2776 30 27.9456V32.245H37.5V27.9456C37.5 27.9456 37.5 20.1424 26.1375 19.347H26.1562Z" fill="#FCC02A"/>
</svg>
