<svg width="16" height="16" viewBox="0 0 16 16" fill="none" xmlns="http://www.w3.org/2000/svg">
<path d="M12.8001 13.3334C11.5992 13.3334 10.3952 13.057 9.18808 12.5041C7.98097 11.9512 6.86875 11.1661 5.85141 10.1487C4.84253 9.13141 4.05964 8.01564 3.50275 6.80141C2.94541 5.58675 2.66675 4.3863 2.66675 3.20008V2.66675H5.62608L6.19141 5.38875L4.39408 7.06208C4.69808 7.58919 5.01297 8.07075 5.33875 8.50675C5.66453 8.94275 6.00386 9.33586 6.35675 9.68608C6.71319 10.0594 7.11497 10.4083 7.56208 10.7327C8.00919 11.0572 8.51941 11.3772 9.09275 11.6927L10.8334 9.88741L13.3334 10.3914V13.3334H12.8001ZM4.08075 6.43608L5.47541 5.15608L5.09008 3.33341H3.33675C3.35008 3.84186 3.41875 4.35408 3.54275 4.87008C3.6663 5.38564 3.84564 5.90764 4.08075 6.43608ZM9.71408 11.9927C10.1243 12.1985 10.5887 12.3592 11.1074 12.4747C11.6261 12.5903 12.1459 12.6519 12.6667 12.6594V10.9227L11.0747 10.6061L9.71408 11.9927Z" fill="black"/>
</svg>
