<svg width="20" height="20" viewBox="0 0 20 20" fill="none" xmlns="http://www.w3.org/2000/svg">
<g clip-path="url(#clip0_863_666)">
<path d="M3.75008 7.91675H3.33341C2.54758 7.91675 2.15508 7.91675 1.91091 8.16091C1.66675 8.40508 1.66675 8.79758 1.66675 9.58341V16.6667C1.66675 17.4526 1.66675 17.8451 1.91091 18.0892C2.15508 18.3334 2.54758 18.3334 3.33341 18.3334H3.75008C4.53591 18.3334 4.92841 18.3334 5.17258 18.0892C5.41675 17.8451 5.41675 17.4526 5.41675 16.6667V9.58341C5.41675 8.79758 5.41675 8.40508 5.17258 8.16091C4.92841 7.91675 4.53591 7.91675 3.75008 7.91675ZM5.41675 3.54175C5.41675 4.03903 5.2192 4.51594 4.86757 4.86757C4.51594 5.2192 4.03903 5.41675 3.54175 5.41675C3.04447 5.41675 2.56755 5.2192 2.21592 4.86757C1.86429 4.51594 1.66675 4.03903 1.66675 3.54175C1.66675 3.04447 1.86429 2.56755 2.21592 2.21592C2.56755 1.86429 3.04447 1.66675 3.54175 1.66675C4.03903 1.66675 4.51594 1.86429 4.86757 2.21592C5.2192 2.56755 5.41675 3.04447 5.41675 3.54175Z" stroke="black" stroke-width="1.5"/>
<path d="M10.2717 7.91685H9.58341C8.79758 7.91685 8.40508 7.91685 8.16091 8.16102C7.91675 8.40518 7.91675 8.79768 7.91675 9.58352V16.6668C7.91675 17.4527 7.91675 17.8452 8.16091 18.0894C8.40508 18.3335 8.79758 18.3335 9.58341 18.3335H10.0001C10.7859 18.3335 11.1784 18.3335 11.4226 18.0894C11.6667 17.8452 11.6667 17.4527 11.6667 16.6668V13.7502C11.6667 12.3693 12.1067 11.2502 13.4067 11.2502C14.0567 11.2502 14.5834 11.8102 14.5834 12.5002V16.2502C14.5834 17.036 14.5834 17.4285 14.8276 17.6727C15.0717 17.9169 15.4642 17.9168 16.2501 17.9168H16.6659C17.4509 17.9168 17.8442 17.9169 18.0884 17.6727C18.3317 17.4285 18.3326 17.036 18.3326 16.251L18.3334 11.6668C18.3334 9.59518 16.3634 7.91685 14.4142 7.91685C13.3042 7.91685 12.3142 8.46018 11.6667 9.31102C11.6667 8.78602 11.6667 8.52352 11.5526 8.32852C11.4804 8.20513 11.3776 8.10239 11.2542 8.03018C11.0592 7.91602 10.7967 7.91602 10.2717 7.91602V7.91685Z" stroke="black" stroke-width="1.5" stroke-linejoin="round"/>
</g>
<defs>
<clipPath id="clip0_863_666">
<rect width="20" height="20" fill="white"/>
</clipPath>
</defs>
</svg>
