<svg width="34" height="34" viewBox="0 0 34 34" fill="none" xmlns="http://www.w3.org/2000/svg">
<g clip-path="url(#clip0_954_196)">
<path d="M5.66663 24.6667H28.3333V9.08333H5.66663V24.6667ZM18.4166 27.5V30.3333H24.0833V33.1667H9.91663V30.3333H15.5833V27.5H4.23863C4.05259 27.4985 3.86866 27.4604 3.69735 27.3878C3.52604 27.3153 3.3707 27.2097 3.2402 27.0771C3.1097 26.9445 3.0066 26.7875 2.93679 26.615C2.86697 26.4426 2.8318 26.258 2.8333 26.072V7.678C2.8333 6.88892 3.47788 6.25 4.23863 6.25H29.7613C30.5376 6.25 31.1666 6.88608 31.1666 7.67658V26.072C31.1666 26.8611 30.522 27.5 29.7613 27.5H18.4166Z" fill="#158841"/>
</g>
<defs>
<clipPath id="clip0_954_196">
<rect width="34" height="34" fill="white"/>
</clipPath>
</defs>
</svg>
