<svg width="24" height="20" viewBox="0 0 24 20" fill="none" xmlns="http://www.w3.org/2000/svg">
<path d="M2.17127 13.404C1.22376 12.1673 0.75 11.5478 0.75 9.71175C0.75 7.87459 1.22376 7.25735 2.17127 6.01951C4.06296 3.55055 7.23546 0.75 11.8972 0.75C16.559 0.75 19.7315 3.55055 21.6232 6.01951C22.5707 7.25847 23.0445 7.87571 23.0445 9.71175C23.0445 11.5489 22.5707 12.1661 21.6232 13.404C19.7315 15.8729 16.559 18.6735 11.8972 18.6735C7.23546 18.6735 4.06296 15.8729 2.17127 13.404Z" stroke="#6B6661" stroke-opacity="0.5" stroke-width="1.5"/>
<path d="M15.2415 9.71222C15.2415 10.6035 14.8891 11.4583 14.262 12.0886C13.6348 12.7188 12.7842 13.0729 11.8973 13.0729C11.0104 13.0729 10.1598 12.7188 9.53261 12.0886C8.90546 11.4583 8.55313 10.6035 8.55313 9.71222C8.55313 8.82092 8.90546 7.96612 9.53261 7.33588C10.1598 6.70563 11.0104 6.35156 11.8973 6.35156C12.7842 6.35156 13.6348 6.70563 14.262 7.33588C14.8891 7.96612 15.2415 8.82092 15.2415 9.71222Z" stroke="#6B6661" stroke-opacity="0.5" stroke-width="1.5"/>
</svg>
