<svg width="48" height="48" viewBox="0 0 48 48" fill="none" xmlns="http://www.w3.org/2000/svg">
<path d="M41.512 10.69C41.3242 10.4733 41.0919 10.2996 40.8311 10.1805C40.5702 10.0615 40.2868 9.99989 40 10H12.362L11.972 7.672C11.8944 7.205 11.6536 6.78068 11.2925 6.47452C10.9314 6.16836 10.4734 6.00022 10 6H5.5C4.96957 6 4.46086 6.21071 4.08579 6.58579C3.71071 6.96086 3.5 7.46957 3.5 8C3.5 8.53043 3.71071 9.03914 4.08579 9.41421C4.46086 9.78929 4.96957 10 5.5 10H8.306L12.026 32.328L12.116 32.576L12.224 32.878L12.464 33.236L12.654 33.46L13.04 33.72L13.264 33.85C13.497 33.9458 13.7461 33.9967 13.998 34H36C36.5304 34 37.0391 33.7893 37.4142 33.4142C37.7893 33.0391 38 32.5304 38 32C38 31.4696 37.7893 30.9609 37.4142 30.5858C37.0391 30.2107 36.5304 30 36 30H15.694L15.362 28H38C38.4813 28.0001 38.9464 27.8266 39.3101 27.5114C39.6738 27.1962 39.9117 26.7604 39.98 26.284L41.98 12.284C42.0208 12.0003 42.0001 11.7111 41.9193 11.4361C41.8386 11.1611 41.6997 10.9066 41.512 10.69ZM37.694 14L37.124 18H30V14H37.694ZM28 14V18H22V14H28ZM28 20V24H22V20H28ZM20 14V18H14L13.704 18.06L13.028 14H20ZM14.028 20H20V24H14.694L14.028 20ZM30 24V20H36.836L36.266 24H30Z" fill="#808080"/>
<path d="M17 42C18.6569 42 20 40.6569 20 39C20 37.3431 18.6569 36 17 36C15.3431 36 14 37.3431 14 39C14 40.6569 15.3431 42 17 42Z" fill="#808080"/>
<path d="M35 42C36.6569 42 38 40.6569 38 39C38 37.3431 36.6569 36 35 36C33.3431 36 32 37.3431 32 39C32 40.6569 33.3431 42 35 42Z" fill="#808080"/>
</svg>
