<svg width="34" height="34" viewBox="0 0 34 34" fill="none" xmlns="http://www.w3.org/2000/svg">
<g clip-path="url(#clip0_863_935)">
<path d="M27.1086 4.62764H24.9892V6.47869H26.8402V29.6168H6.47867V6.47869H8.32973V4.62764H6.47867C6.25202 4.59486 6.02098 4.61052 5.80082 4.67358C5.58066 4.73664 5.37637 4.84568 5.20145 4.99349C5.02652 5.14131 4.88493 5.32454 4.78602 5.53109C4.6871 5.73765 4.63312 5.96283 4.62762 6.19178V29.9037C4.62884 30.1104 4.67073 30.3147 4.75093 30.5051C4.83112 30.6956 4.94803 30.8683 5.095 31.0136C5.24196 31.1588 5.41609 31.2737 5.60745 31.3517C5.79881 31.4296 6.00365 31.4691 6.21027 31.4679H27.1086C27.3153 31.4691 27.5201 31.4296 27.7114 31.3517C27.9028 31.2737 28.0769 31.1588 28.2239 31.0136C28.3709 30.8683 28.4878 30.6956 28.568 30.5051C28.6482 30.3147 28.6901 30.1104 28.6913 29.9037V6.19178C28.6901 5.98516 28.6482 5.7808 28.568 5.59037C28.4878 5.39994 28.3709 5.22717 28.2239 5.08193C28.0769 4.93668 27.9028 4.82181 27.7114 4.74386C27.5201 4.66591 27.3153 4.62642 27.1086 4.62764Z" fill="white"/>
<path d="M24.0636 6.78412C24.0612 6.21294 23.8332 5.66584 23.4293 5.26195C23.0254 4.85806 22.4784 4.63008 21.9072 4.62765H20.2412C20.0373 3.83131 19.5742 3.12548 18.9248 2.62144C18.2755 2.1174 17.4768 1.84381 16.6548 1.84381C15.8328 1.84381 15.0342 2.1174 14.3848 2.62144C13.7354 3.12548 13.2723 3.83131 13.0684 4.62765H11.4117C10.8405 4.63008 10.2934 4.85806 9.88956 5.26195C9.48567 5.66584 9.25768 6.21294 9.25525 6.78412V10.1808H24.0636V6.78412ZM22.2126 8.32974H11.1063V6.78412C11.1063 6.74401 11.1142 6.70429 11.1295 6.66724C11.1449 6.63018 11.1674 6.59651 11.1958 6.56815C11.2241 6.53979 11.2578 6.51729 11.2948 6.50194C11.3319 6.48659 11.3716 6.47869 11.4117 6.47869H14.8084V5.55317C14.8084 5.06224 15.0034 4.59142 15.3506 4.24428C15.6977 3.89714 16.1685 3.70212 16.6594 3.70212C17.1504 3.70212 17.6212 3.89714 17.9683 4.24428C18.3155 4.59142 18.5105 5.06224 18.5105 5.55317V6.47869H21.9072C21.9882 6.47869 22.0659 6.51087 22.1231 6.56815C22.1804 6.62543 22.2126 6.70311 22.2126 6.78412V8.32974Z" fill="white"/>
<path d="M10.1808 12.9573H23.1381V14.8084H10.1808V12.9573Z" fill="white"/>
<path d="M10.1808 16.6594H23.1381V18.5105H10.1808V16.6594Z" fill="white"/>
<path d="M10.1808 20.3616H23.1381V22.2126H10.1808V20.3616Z" fill="white"/>
<path d="M10.1808 24.0637H23.1381V25.9147H10.1808V24.0637Z" fill="white"/>
</g>
<defs>
<clipPath id="clip0_863_935">
<rect width="33.3189" height="33.3189" fill="white"/>
</clipPath>
</defs>
</svg>
