<svg width="25" height="25" viewBox="0 0 25 25" fill="none" xmlns="http://www.w3.org/2000/svg">
<path d="M2.77778 1.5625C1.24566 1.5625 0 2.96387 0 4.6875V20.3125C0 22.0361 1.24566 23.4375 2.77778 23.4375H4.16667V1.5625H2.77778ZM5.55556 1.5625V23.4375H19.4444V1.5625H5.55556ZM22.2222 23.4375C23.7543 23.4375 25 22.0361 25 20.3125V4.6875C25 2.96387 23.7543 1.5625 22.2222 1.5625H20.8333V23.4375H22.2222ZM11.1111 8.59375C11.1111 8.16406 11.4236 7.8125 11.8056 7.8125H13.1944C13.5764 7.8125 13.8889 8.16406 13.8889 8.59375V10.9375H15.9722C16.3542 10.9375 16.6667 11.2891 16.6667 11.7188V13.2812C16.6667 13.7109 16.3542 14.0625 15.9722 14.0625H13.8889V16.4062C13.8889 16.8359 13.5764 17.1875 13.1944 17.1875H11.8056C11.4236 17.1875 11.1111 16.8359 11.1111 16.4062V14.0625H9.02778C8.64583 14.0625 8.33333 13.7109 8.33333 13.2812V11.7188C8.33333 11.2891 8.64583 10.9375 9.02778 10.9375H11.1111V8.59375Z" fill="#E3022C"/>
</svg>
