<svg width="54" height="54" viewBox="0 0 54 54" fill="none" xmlns="http://www.w3.org/2000/svg">
<path d="M6.75 16.875V50.625C6.75 52.4813 8.26875 54 10.125 54H40.5C42.3563 54 43.875 52.4813 43.875 50.625V16.875H6.75ZM16.875 47.25H13.5V23.625H16.875V47.25ZM23.625 47.25H20.25V23.625H23.625V47.25ZM30.375 47.25H27V23.625H30.375V47.25ZM37.125 47.25H33.75V23.625H37.125V47.25ZM44.7188 6.75H33.75V2.53125C33.7473 1.86074 33.4798 1.21846 33.0057 0.744331C32.5315 0.270207 31.8893 0.00266607 31.2188 0L19.4062 0C18.7357 0.00266607 18.0935 0.270207 17.6193 0.744331C17.1452 1.21846 16.8777 1.86074 16.875 2.53125V6.75H5.90625C5.23492 6.75 4.59109 7.01668 4.11639 7.49139C3.64168 7.96609 3.375 8.60992 3.375 9.28125V13.5H47.25V9.28125C47.25 8.60992 46.9833 7.96609 46.5086 7.49139C46.0339 7.01668 45.3901 6.75 44.7188 6.75ZM30.375 6.75H20.25V3.41887H30.375V6.75Z" fill="#E3022C"/>
</svg>
