<svg width="40" height="40" viewBox="0 0 40 40" fill="none" xmlns="http://www.w3.org/2000/svg">
<path d="M19.999 33.51L10.3042 39.6249C9.87593 39.9103 9.42818 40.0326 8.96096 39.9918C8.49374 39.951 8.08493 39.788 7.73451 39.5026C7.3841 39.2173 7.11156 38.861 6.91688 38.4337C6.72221 38.0065 6.68327 37.5271 6.80008 36.9955L9.36978 25.4382L0.784637 17.6722C0.395288 17.3053 0.152335 16.8871 0.0557761 16.4174C-0.0407824 15.9478 -0.0119708 15.4896 0.142211 15.0428C0.296394 14.596 0.530003 14.2291 0.843039 13.9421C1.15608 13.6551 1.58436 13.4717 2.12789 13.3918L13.4579 12.3522L17.8381 1.46759C18.0328 0.978393 18.3349 0.611495 18.7445 0.366897C19.1541 0.122299 19.5723 0 19.999 0C20.4257 0 20.8439 0.122299 21.2535 0.366897C21.6631 0.611495 21.9652 0.978393 22.1599 1.46759L26.5401 12.3522L37.8701 13.3918C38.4152 13.4733 38.8435 13.6567 39.155 13.9421C39.4664 14.2275 39.7001 14.5944 39.8558 15.0428C40.0115 15.4912 40.0411 15.9503 39.9446 16.4199C39.848 16.8895 39.6043 17.307 39.2134 17.6722L30.6282 25.4382L33.1979 36.9955C33.3147 37.5255 33.2758 38.0049 33.0811 38.4337C32.8865 38.8626 32.6139 39.2189 32.2635 39.5026C31.9131 39.7864 31.5043 39.9494 31.037 39.9918C30.5698 40.0342 30.1221 39.9119 29.6938 39.6249L19.999 33.51Z" fill="#FCC02A"/>
</svg>
