<svg width="25" height="25" viewBox="0 0 25 25" fill="none" xmlns="http://www.w3.org/2000/svg">
<path d="M12.5 12.4999C11.3541 12.4999 10.4166 11.5624 10.4166 10.4166C10.4166 9.27075 11.3541 8.33325 12.5 8.33325C13.6458 8.33325 14.5833 9.27075 14.5833 10.4166C14.5833 11.5624 13.6458 12.4999 12.5 12.4999ZM18.75 10.6249C18.75 6.84367 15.9895 4.16659 12.5 4.16659C9.01038 4.16659 6.24996 6.84367 6.24996 10.6249C6.24996 13.0624 8.28121 16.2916 12.5 20.1458C16.7187 16.2916 18.75 13.0624 18.75 10.6249ZM12.5 2.08325C16.875 2.08325 20.8333 5.43742 20.8333 10.6249C20.8333 14.0833 18.052 18.177 12.5 22.9166C6.94788 18.177 4.16663 14.0833 4.16663 10.6249C4.16663 5.43742 8.12496 2.08325 12.5 2.08325Z" fill="#6B6661"/>
</svg>
