<svg width="46" height="46" viewBox="0 0 46 46" fill="none" xmlns="http://www.w3.org/2000/svg">
<path fill-rule="evenodd" clip-rule="evenodd" d="M29.4792 21.2292C29.9322 21.2292 30.3668 21.0492 30.6871 20.7288C31.0075 20.4084 31.1875 19.9739 31.1875 19.5208C31.1875 19.0678 31.0075 18.6332 30.6871 18.3129C30.3668 17.9925 29.9322 17.8125 29.4792 17.8125C29.0261 17.8125 28.5916 17.9925 28.2712 18.3129C27.9508 18.6332 27.7708 19.0678 27.7708 19.5208C27.7708 19.9739 27.9508 20.4084 28.2712 20.7288C28.5916 21.0492 29.0261 21.2292 29.4792 21.2292ZM29.4792 23.7917C30.6119 23.7917 31.6982 23.3417 32.4991 22.5408C33.3 21.7398 33.75 20.6535 33.75 19.5208C33.75 18.3881 33.3 17.3018 32.4991 16.5009C31.6982 15.7 30.6119 15.25 29.4792 15.25C28.3465 15.25 27.2602 15.7 26.4592 16.5009C25.6583 17.3018 25.2083 18.3881 25.2083 19.5208C25.2083 20.6535 25.6583 21.7398 26.4592 22.5408C27.2602 23.3417 28.3465 23.7917 29.4792 23.7917ZM25.6354 34.0417V30.625C25.6354 29.379 25.1405 28.1841 24.2594 27.3031C23.3784 26.422 22.1835 25.9271 20.9375 25.9271H14.1042C12.8582 25.9271 11.6633 26.422 10.7822 27.3031C9.90121 28.1841 9.40625 29.379 9.40625 30.625V34.0417H11.9688V30.625C11.9688 29.4462 12.9254 28.4896 14.1042 28.4896H20.9375C22.1163 28.4896 23.0729 29.4462 23.0729 30.625V34.0417H25.6354ZM37.5938 30.625V34.0417H35.0312V30.625C35.0312 29.4462 34.0746 28.4896 32.8958 28.4896H28.625V25.9271H32.8958C34.1418 25.9271 35.3367 26.422 36.2178 27.3031C37.0988 28.1841 37.5938 29.379 37.5938 30.625ZM19.2292 19.5208C19.2292 19.9739 19.0492 20.4084 18.7288 20.7288C18.4084 21.0492 17.9739 21.2292 17.5208 21.2292C17.0678 21.2292 16.6332 21.0492 16.3129 20.7288C15.9925 20.4084 15.8125 19.9739 15.8125 19.5208C15.8125 19.0678 15.9925 18.6332 16.3129 18.3129C16.6332 17.9925 17.0678 17.8125 17.5208 17.8125C17.9739 17.8125 18.4084 17.9925 18.7288 18.3129C19.0492 18.6332 19.2292 19.0678 19.2292 19.5208ZM21.7917 19.5208C21.7917 20.6535 21.3417 21.7398 20.5408 22.5408C19.7398 23.3417 18.6535 23.7917 17.5208 23.7917C16.3881 23.7917 15.3018 23.3417 14.5009 22.5408C13.7 21.7398 13.25 20.6535 13.25 19.5208C13.25 18.3881 13.7 17.3018 14.5009 16.5009C15.3018 15.7 16.3881 15.25 17.5208 15.25C18.6535 15.25 19.7398 15.7 20.5408 16.5009C21.3417 17.3018 21.7917 18.3881 21.7917 19.5208Z" fill="#761E91"/>
</svg>
