<svg width="40" height="40" viewBox="0 0 40 40" fill="none" xmlns="http://www.w3.org/2000/svg">
<path d="M10 31.6667H15V23.3333C15 22.8611 15.16 22.4655 15.48 22.1467C15.8 21.8278 16.1956 21.6678 16.6667 21.6667H23.3333C23.8056 21.6667 24.2017 21.8267 24.5217 22.1467C24.8417 22.4667 25.0011 22.8622 25 23.3333V31.6667H30V16.6667L20 9.16666L10 16.6667V31.6667ZM6.66667 31.6667V16.6667C6.66667 16.1389 6.785 15.6389 7.02167 15.1667C7.25834 14.6944 7.58445 14.3055 8.00001 14L18 6.5C18.5833 6.05555 19.25 5.83333 20 5.83333C20.75 5.83333 21.4167 6.05555 22 6.5L32 14C32.4167 14.3055 32.7433 14.6944 32.98 15.1667C33.2167 15.6389 33.3344 16.1389 33.3333 16.6667V31.6667C33.3333 32.5833 33.0067 33.3683 32.3533 34.0217C31.7 34.675 30.9156 35.0011 30 35H23.3333C22.8611 35 22.4656 34.84 22.1467 34.52C21.8278 34.2 21.6678 33.8044 21.6667 33.3333V25H18.3333V33.3333C18.3333 33.8055 18.1733 34.2017 17.8533 34.5217C17.5333 34.8417 17.1378 35.0011 16.6667 35H10C9.08334 35 8.29889 34.6739 7.64667 34.0217C6.99445 33.3694 6.66778 32.5844 6.66667 31.6667Z" fill="#1980E6"/>
</svg>
