<svg width="26" height="26" viewBox="0 0 26 26" fill="none" xmlns="http://www.w3.org/2000/svg">
<path d="M10.1749 10.7105C10.6672 10.7105 11.1547 10.6135 11.6095 10.4251C12.0643 10.2367 12.4776 9.96062 12.8257 9.61252C13.1738 9.26442 13.4499 8.85117 13.6383 8.39636C13.8267 7.94155 13.9236 7.45409 13.9236 6.96181C13.9236 6.46953 13.8267 5.98206 13.6383 5.52725C13.4499 5.07244 13.1738 4.65919 12.8257 4.3111C12.4776 3.963 12.0643 3.68687 11.6095 3.49849C11.1547 3.3101 10.6672 3.21313 10.1749 3.21313C9.18073 3.21313 8.22724 3.60808 7.52423 4.3111C6.82122 5.01411 6.42627 5.9676 6.42627 6.96181C6.42627 7.95602 6.82122 8.90951 7.52423 9.61252C8.22724 10.3155 9.18073 10.7105 10.1749 10.7105Z" fill="#808080" fill-opacity="0.5" stroke="#808080" stroke-opacity="0.5" stroke-width="2" stroke-linecap="round" stroke-linejoin="round"/>
<path d="M17.4624 3.74866C18.0167 4.08203 18.4752 4.55313 18.7935 5.11617C19.1118 5.67921 19.279 6.31502 19.2789 6.96181C19.279 7.60859 19.1118 8.2444 18.7935 8.80744C18.4752 9.37048 18.0167 9.84158 17.4624 10.175" stroke="#808080" stroke-opacity="0.5" stroke-width="2" stroke-linecap="round" stroke-linejoin="round"/>
<path d="M2.14209 21.8494V22.492H18.2078V21.8494C18.2078 19.4503 18.2078 18.2507 17.7409 17.3339C17.3301 16.5278 16.6747 15.8724 15.8687 15.4617C14.9518 14.9947 13.7523 14.9947 11.3531 14.9947H8.99681C6.59765 14.9947 5.39808 14.9947 4.48126 15.4617C3.67517 15.8724 3.0198 16.5278 2.60907 17.3339C2.14209 18.2507 2.14209 19.4503 2.14209 21.8494Z" fill="#808080" fill-opacity="0.5" stroke="#808080" stroke-opacity="0.5" stroke-width="2" stroke-linecap="round" stroke-linejoin="round"/>
<path d="M23.563 22.492V21.8494C23.563 19.4503 23.563 18.2507 23.0961 17.3339C22.6853 16.5278 22.03 15.8724 21.2239 15.4617" stroke="#808080" stroke-opacity="0.5" stroke-width="2" stroke-linecap="round" stroke-linejoin="round"/>
</svg>
