<svg width="38" height="35" viewBox="0 0 38 35" fill="none" xmlns="http://www.w3.org/2000/svg">
<path d="M25.9231 26.3846V31.4615C25.9231 32.1348 25.6313 32.7804 25.112 33.2565C24.5927 33.7326 23.8883 34 23.1538 34H3.76923C3.03479 34 2.33042 33.7326 1.81109 33.2565C1.29176 32.7804 1 32.1348 1 31.4615V3.53846C1 2.86522 1.29176 2.21955 1.81109 1.7435C2.33042 1.26744 3.03479 1 3.76923 1H23.1538C23.8883 1 24.5927 1.26744 25.112 1.7435C25.6313 2.21955 25.9231 2.86522 25.9231 3.53846V8.61538M17.6154 17.5H37M31.4615 22.5769L37 17.5L31.4615 12.4231" stroke="#808080" stroke-width="2" stroke-linecap="round" stroke-linejoin="round"/>
</svg>
