<svg width="50" height="50" viewBox="0 0 50 50" fill="none" xmlns="http://www.w3.org/2000/svg">
<g clip-path="url(#clip0_784_473)">
<path d="M40.6806 6.94446H37.5V9.72224H40.2778V44.4445H9.72222V9.72224H12.5V6.94446H9.72222C9.38209 6.89527 9.03539 6.91877 8.705 7.0134C8.37461 7.10804 8.06805 7.27166 7.80555 7.49348C7.54304 7.7153 7.33056 7.99026 7.18213 8.30023C7.0337 8.61019 6.95269 8.94811 6.94444 9.29169V44.875C6.94626 45.1851 7.00914 45.4918 7.12948 45.7775C7.24982 46.0633 7.42527 46.3226 7.64581 46.5405C7.86635 46.7585 8.12766 46.9309 8.41482 47.0478C8.70198 47.1648 9.00938 47.2241 9.31944 47.2222H40.6806C40.9906 47.2241 41.298 47.1648 41.5852 47.0478C41.8723 46.9309 42.1337 46.7585 42.3542 46.5405C42.5747 46.3226 42.7502 46.0633 42.8705 45.7775C42.9909 45.4918 43.0537 45.1851 43.0556 44.875V9.29169C43.0537 8.98162 42.9909 8.67495 42.8705 8.38918C42.7502 8.10341 42.5747 7.84415 42.3542 7.62618C42.1337 7.40822 41.8723 7.23584 41.5852 7.11887C41.298 7.0019 40.9906 6.94263 40.6806 6.94446Z" fill="#158841"/>
<path d="M36.1111 10.1805C36.1075 9.32337 35.7653 8.50238 35.1592 7.89628C34.5531 7.29018 33.7321 6.94806 32.875 6.94441H30.375C30.069 5.74938 29.374 4.69019 28.3996 3.93379C27.4251 3.1774 26.2266 2.76685 24.9931 2.76685C23.7595 2.76685 22.561 3.1774 21.5865 3.93379C20.6121 4.69019 19.9171 5.74938 19.6111 6.94441H17.125C16.2679 6.94806 15.4469 7.29018 14.8408 7.89628C14.2347 8.50238 13.8925 9.32337 13.8889 10.1805V15.2777H36.1111V10.1805ZM33.3333 12.5H16.6667V10.1805C16.6667 10.1203 16.6785 10.0607 16.7016 10.0051C16.7246 9.94951 16.7583 9.89899 16.8009 9.85643C16.8435 9.81387 16.894 9.78011 16.9496 9.75707C17.0052 9.73404 17.0648 9.72218 17.125 9.72218H22.2222V8.33329C22.2222 7.59658 22.5149 6.89004 23.0358 6.36911C23.5567 5.84817 24.2633 5.55552 25 5.55552C25.7367 5.55552 26.4432 5.84817 26.9642 6.36911C27.4851 6.89004 27.7778 7.59658 27.7778 8.33329V9.72218H32.875C32.9966 9.72218 33.1131 9.77047 33.1991 9.85643C33.285 9.94238 33.3333 10.059 33.3333 10.1805V12.5Z" fill="#158841"/>
<path d="M15.2778 19.4443H34.7222V22.2221H15.2778V19.4443Z" fill="#158841"/>
<path d="M15.2778 25H34.7222V27.7778H15.2778V25Z" fill="#158841"/>
<path d="M15.2778 30.5557H34.7222V33.3334H15.2778V30.5557Z" fill="#158841"/>
<path d="M15.2778 36.1111H34.7222V38.8889H15.2778V36.1111Z" fill="#158841"/>
</g>
<defs>
<clipPath id="clip0_784_473">
<rect width="50" height="50" fill="white"/>
</clipPath>
</defs>
</svg>
