<svg width="25" height="25" viewBox="0 0 25 25" fill="none" xmlns="http://www.w3.org/2000/svg">
<path d="M12.5 20.8333C14.7101 20.8333 16.8297 19.9553 18.3926 18.3925C19.9554 16.8297 20.8333 14.7101 20.8333 12.4999C20.8333 10.2898 19.9554 8.17017 18.3926 6.60736C16.8297 5.04456 14.7101 4.16659 12.5 4.16659C10.2899 4.16659 8.17024 5.04456 6.60744 6.60736C5.04464 8.17017 4.16666 10.2898 4.16666 12.4999C4.16666 14.7101 5.04464 16.8297 6.60744 18.3925C8.17024 19.9553 10.2899 20.8333 12.5 20.8333ZM12.5 2.08325C13.8679 2.08325 15.2225 2.35269 16.4863 2.87617C17.7501 3.39966 18.8984 4.16695 19.8657 5.13422C20.833 6.1015 21.6003 7.24982 22.1237 8.51363C22.6472 9.77744 22.9167 11.132 22.9167 12.4999C22.9167 15.2626 21.8192 17.9121 19.8657 19.8656C17.9122 21.8191 15.2627 22.9166 12.5 22.9166C6.73958 22.9166 2.08333 18.2291 2.08333 12.4999C2.08333 9.73725 3.1808 7.08773 5.1343 5.13422C7.0878 3.18072 9.73732 2.08325 12.5 2.08325ZM13.0208 7.29158V12.7603L17.7083 15.5416L16.9271 16.8228L11.4583 13.5416V7.29158H13.0208Z" fill="#6B6661"/>
</svg>
