<svg width="58" height="56" viewBox="0 0 58 56" fill="none" xmlns="http://www.w3.org/2000/svg">
<ellipse cx="29" cy="28" rx="29" ry="28" fill="#921FB4" fill-opacity="0.4"/>
<path fill-rule="evenodd" clip-rule="evenodd" d="M34.4792 27.2292C34.9322 27.2292 35.3668 27.0492 35.6871 26.7288C36.0075 26.4084 36.1875 25.9739 36.1875 25.5208C36.1875 25.0678 36.0075 24.6332 35.6871 24.3129C35.3668 23.9925 34.9322 23.8125 34.4792 23.8125C34.0261 23.8125 33.5916 23.9925 33.2712 24.3129C32.9508 24.6332 32.7708 25.0678 32.7708 25.5208C32.7708 25.9739 32.9508 26.4084 33.2712 26.7288C33.5916 27.0492 34.0261 27.2292 34.4792 27.2292ZM34.4792 29.7917C35.6119 29.7917 36.6982 29.3417 37.4991 28.5408C38.3 27.7398 38.75 26.6535 38.75 25.5208C38.75 24.3881 38.3 23.3018 37.4991 22.5009C36.6982 21.7 35.6119 21.25 34.4792 21.25C33.3465 21.25 32.2602 21.7 31.4592 22.5009C30.6583 23.3018 30.2083 24.3881 30.2083 25.5208C30.2083 26.6535 30.6583 27.7398 31.4592 28.5408C32.2602 29.3417 33.3465 29.7917 34.4792 29.7917ZM30.6354 40.0417V36.625C30.6354 35.379 30.1405 34.1841 29.2594 33.3031C28.3784 32.422 27.1835 31.9271 25.9375 31.9271H19.1042C17.8582 31.9271 16.6633 32.422 15.7822 33.3031C14.9012 34.1841 14.4062 35.379 14.4062 36.625V40.0417H16.9688V36.625C16.9688 35.4462 17.9254 34.4896 19.1042 34.4896H25.9375C27.1163 34.4896 28.0729 35.4462 28.0729 36.625V40.0417H30.6354ZM42.5938 36.625V40.0417H40.0312V36.625C40.0312 35.4462 39.0746 34.4896 37.8958 34.4896H33.625V31.9271H37.8958C39.1418 31.9271 40.3367 32.422 41.2178 33.3031C42.0988 34.1841 42.5938 35.379 42.5938 36.625ZM24.2292 25.5208C24.2292 25.9739 24.0492 26.4084 23.7288 26.7288C23.4084 27.0492 22.9739 27.2292 22.5208 27.2292C22.0678 27.2292 21.6332 27.0492 21.3129 26.7288C20.9925 26.4084 20.8125 25.9739 20.8125 25.5208C20.8125 25.0678 20.9925 24.6332 21.3129 24.3129C21.6332 23.9925 22.0678 23.8125 22.5208 23.8125C22.9739 23.8125 23.4084 23.9925 23.7288 24.3129C24.0492 24.6332 24.2292 25.0678 24.2292 25.5208ZM26.7917 25.5208C26.7917 26.6535 26.3417 27.7398 25.5408 28.5408C24.7398 29.3417 23.6535 29.7917 22.5208 29.7917C21.3881 29.7917 20.3018 29.3417 19.5009 28.5408C18.7 27.7398 18.25 26.6535 18.25 25.5208C18.25 24.3881 18.7 23.3018 19.5009 22.5009C20.3018 21.7 21.3881 21.25 22.5208 21.25C23.6535 21.25 24.7398 21.7 25.5408 22.5009C26.3417 23.3018 26.7917 24.3881 26.7917 25.5208Z" fill="#761E91"/>
</svg>
