<svg width="50" height="40" viewBox="0 0 50 40" fill="none" xmlns="http://www.w3.org/2000/svg">
<path fill-rule="evenodd" clip-rule="evenodd" d="M17.1875 14.0625C18.4307 14.0625 19.623 13.5686 20.5021 12.6896C21.3811 11.8105 21.875 10.6182 21.875 9.375C21.875 8.1318 21.3811 6.93951 20.5021 6.06044C19.623 5.18136 18.4307 4.6875 17.1875 4.6875C15.9443 4.6875 14.752 5.18136 13.8729 6.06044C12.9939 6.93951 12.5 8.1318 12.5 9.375C12.5 10.6182 12.9939 11.8105 13.8729 12.6896C14.752 13.5686 15.9443 14.0625 17.1875 14.0625ZM17.1875 18.75C19.6739 18.75 22.0585 17.7623 23.8166 16.0041C25.5748 14.246 26.5625 11.8614 26.5625 9.375C26.5625 6.8886 25.5748 4.50403 23.8166 2.74587C22.0585 0.987721 19.6739 0 17.1875 0C14.7011 0 12.3165 0.987721 10.5584 2.74587C8.80022 4.50403 7.8125 6.8886 7.8125 9.375C7.8125 11.8614 8.80022 14.246 10.5584 16.0041C12.3165 17.7623 14.7011 18.75 17.1875 18.75ZM7.72187 27.7687C5.29375 29.4562 4.6875 31.0906 4.6875 31.85C4.6875 33.2438 5.81875 34.375 7.2125 34.375H27.1625C27.8317 34.3733 28.4729 34.1068 28.9461 33.6336C29.4193 33.1604 29.6859 32.5192 29.6875 31.85C29.6875 31.0875 29.0813 29.4531 26.6531 27.7687C24.35 26.1719 20.9969 25 17.1875 25C13.3781 25 10.025 26.1719 7.72187 27.7687ZM0 31.85C0 26.0813 7.73437 20.3125 17.1875 20.3125C20.875 20.3125 24.3062 21.1906 27.1156 22.6063C29.8059 21.0854 32.8472 20.2947 35.9375 20.3125C43.6719 20.3125 50 25.1187 50 29.9281C50 31.5219 49.3669 33.0504 48.2399 34.1774C47.1129 35.3044 45.5844 35.9375 43.9906 35.9375H33.1063C31.8062 37.825 29.6281 39.0625 27.1625 39.0625H7.2125C5.30013 39.0608 3.46657 38.3004 2.11432 36.9482C0.762073 35.5959 0.00165501 33.7624 0 31.85ZM34.3469 31.25H43.9906C44.7219 31.25 45.3125 30.6562 45.3125 29.9281C45.3125 29.6062 45.0125 28.4531 43.1625 27.1469C41.4313 25.9188 38.8656 25 35.9375 25C34.3219 25 32.8156 25.2812 31.5 25.7375C33.1437 27.4062 34.1688 29.3188 34.3469 31.25ZM39.0625 10.9375C39.0625 11.7663 38.7333 12.5612 38.1472 13.1472C37.5612 13.7333 36.7663 14.0625 35.9375 14.0625C35.1087 14.0625 34.3138 13.7333 33.7278 13.1472C33.1417 12.5612 32.8125 11.7663 32.8125 10.9375C32.8125 10.1087 33.1417 9.31384 33.7278 8.72779C34.3138 8.14174 35.1087 7.8125 35.9375 7.8125C36.7663 7.8125 37.5612 8.14174 38.1472 8.72779C38.7333 9.31384 39.0625 10.1087 39.0625 10.9375ZM43.75 10.9375C43.75 13.0095 42.9269 14.9966 41.4618 16.4618C39.9966 17.9269 38.0095 18.75 35.9375 18.75C33.8655 18.75 31.8784 17.9269 30.4132 16.4618C28.9481 14.9966 28.125 13.0095 28.125 10.9375C28.125 8.8655 28.9481 6.87836 30.4132 5.41323C31.8784 3.9481 33.8655 3.125 35.9375 3.125C38.0095 3.125 39.9966 3.9481 41.4618 5.41323C42.9269 6.87836 43.75 8.8655 43.75 10.9375Z" fill="#158841"/>
</svg>
