<svg width="58" height="56" viewBox="0 0 58 56" fill="none" xmlns="http://www.w3.org/2000/svg">
<ellipse cx="29" cy="28" rx="29" ry="28" fill="#158841" fill-opacity="0.1"/>
<g clip-path="url(#clip0_1077_3)">
<path d="M17.6666 34.6667H40.3333V19.0833H17.6666V34.6667ZM30.4166 37.5V40.3333H36.0833V43.1667H21.9166V40.3333H27.5833V37.5H16.2386C16.0526 37.4985 15.8687 37.4604 15.6974 37.3878C15.526 37.3153 15.3707 37.2097 15.2402 37.0771C15.1097 36.9445 15.0066 36.7875 14.9368 36.615C14.867 36.4426 14.8318 36.258 14.8333 36.072V17.678C14.8333 16.8889 15.4779 16.25 16.2386 16.25H41.7613C42.5376 16.25 43.1666 16.8861 43.1666 17.6766V36.072C43.1666 36.8611 42.522 37.5 41.7613 37.5H30.4166Z" fill="#158841"/>
</g>
<defs>
<clipPath id="clip0_1077_3">
<rect width="34" height="34" fill="white" transform="translate(12 10)"/>
</clipPath>
</defs>
</svg>
